<svg width="571" height="741" viewBox="0 0 571 741" fill="none" xmlns="http://www.w3.org/2000/svg">
<rect x="40.8906" y="208.794" width="60.4609" height="60.4605" fill="#E5E5E5" stroke="black" stroke-width="0.5"/>
<rect x="99.8195" y="208.794" width="60.4609" height="60.4605" fill="#E5E5E5" stroke="black" stroke-width="0.5"/>
<rect x="158.748" y="208.794" width="60.4609" height="60.4605" fill="#AFAFAF" stroke="black" stroke-width="0.5"/>
<rect x="40.8906" y="326.651" width="60.4609" height="60.4605" fill="#E5E5E5" stroke="black" stroke-width="0.5"/>
<rect x="99.8195" y="326.651" width="60.4609" height="60.4605" fill="#E5E5E5" stroke="black" stroke-width="0.5"/>
<rect x="158.748" y="326.651" width="60.4609" height="60.4605" fill="#E5E5E5" stroke="black" stroke-width="0.5"/>
<rect x="40.8906" y="267.723" width="60.4609" height="60.4605" fill="#E5E5E5" stroke="black" stroke-width="0.5"/>
<rect x="99.8195" y="267.723" width="60.4609" height="60.4605" fill="#E5E5E5" stroke="black" stroke-width="0.5"/>
<rect x="158.748" y="267.723" width="60.4609" height="60.4605" fill="#E5E5E5" stroke="black" stroke-width="0.5"/>
<rect x="217.677" y="208.794" width="60.4609" height="60.4605" fill="white" stroke="black" stroke-width="0.5"/>
<rect x="276.606" y="208.794" width="60.4609" height="60.4605" fill="white" stroke="black" stroke-width="0.5"/>
<rect x="333.503" y="208.794" width="60.4609" height="60.4605" fill="white" stroke="black" stroke-width="0.5"/>
<rect x="217.677" y="326.651" width="60.4609" height="60.4605" fill="white" stroke="black" stroke-width="0.5"/>
<rect x="276.606" y="326.651" width="60.4609" height="60.4605" fill="white" stroke="black" stroke-width="0.5"/>
<rect x="333.503" y="326.651" width="60.4609" height="60.4605" fill="white" stroke="black" stroke-width="0.5"/>
<rect x="217.677" y="267.723" width="60.4609" height="60.4605" fill="white" stroke="black" stroke-width="0.5"/>
<rect x="276.606" y="267.723" width="60.4609" height="60.4605" fill="white" stroke="black" stroke-width="0.5"/>
<rect x="333.503" y="267.723" width="60.4609" height="60.4605" fill="white" stroke="black" stroke-width="0.5"/>
<rect x="392.431" y="208.794" width="60.4609" height="60.4605" fill="#E6E6E6" stroke="black" stroke-width="0.5"/>
<path d="M451.36 208.794H511.821V269.255H451.36V208.794Z" fill="#E6E6E6" stroke="black" stroke-width="0.5"/>
<path d="M510.289 208.794H570.75V269.255H510.289V208.794Z" fill="#E6E6E6" stroke="black" stroke-width="0.5"/>
<rect x="392.431" y="326.651" width="60.4609" height="60.4605" fill="#E6E6E6" stroke="black" stroke-width="0.5"/>
<path d="M451.36 326.651H511.821V387.112H451.36V326.651Z" fill="#E6E6E6" stroke="black" stroke-width="0.5"/>
<path d="M510.289 326.651H570.75V387.112H510.289V326.651Z" fill="#E6E6E6" stroke="black" stroke-width="0.5"/>
<rect x="392.431" y="267.723" width="60.4609" height="60.4605" fill="#E6E6E6" stroke="black" stroke-width="0.5"/>
<path d="M451.36 267.723H511.821V328.183H451.36V267.723Z" fill="#E6E6E6" stroke="black" stroke-width="0.5"/>
<path d="M510.289 267.723H570.75V328.183H510.289V267.723Z" fill="#E6E6E6" stroke="black" stroke-width="0.5"/>
<rect x="40.8906" y="444.508" width="60.4609" height="60.4605" fill="white" stroke="black" stroke-width="0.5"/>
<rect x="99.8195" y="444.508" width="60.4609" height="60.4605" fill="white" stroke="black" stroke-width="0.5"/>
<rect x="158.748" y="444.508" width="60.4609" height="60.4605" fill="white" stroke="black" stroke-width="0.5"/>
<rect x="40.8906" y="503.437" width="60.4609" height="60.4605" fill="white" stroke="black" stroke-width="0.5"/>
<rect x="99.8195" y="503.437" width="60.4609" height="60.4605" fill="white" stroke="black" stroke-width="0.5"/>
<rect x="158.748" y="503.437" width="60.4609" height="60.4605" fill="white" stroke="black" stroke-width="0.5"/>
<rect x="40.8906" y="385.58" width="60.4609" height="60.4605" fill="white" stroke="black" stroke-width="0.5"/>
<rect x="99.8195" y="385.58" width="60.4609" height="60.4605" fill="white" stroke="black" stroke-width="0.5"/>
<rect x="158.748" y="385.58" width="60.4609" height="60.4605" fill="white" stroke="black" stroke-width="0.5"/>
<rect x="217.677" y="444.508" width="60.4609" height="60.4605" fill="#E5E5E5" stroke="black" stroke-width="0.5"/>
<rect x="276.606" y="444.508" width="60.4609" height="60.4605" fill="#E5E5E5" stroke="black" stroke-width="0.5"/>
<rect x="333.503" y="444.508" width="60.4609" height="60.4605" fill="#E5E5E5" stroke="black" stroke-width="0.5"/>
<rect x="217.677" y="503.437" width="60.4609" height="60.4605" fill="#E5E5E5" stroke="black" stroke-width="0.5"/>
<rect x="276.606" y="503.437" width="60.4609" height="60.4605" fill="#E5E5E5" stroke="black" stroke-width="0.5"/>
<rect x="333.503" y="503.437" width="60.4609" height="60.4605" fill="#E5E5E5" stroke="black" stroke-width="0.5"/>
<rect x="217.677" y="385.58" width="60.4609" height="60.4605" fill="#E5E5E5" stroke="black" stroke-width="0.5"/>
<rect x="276.606" y="385.58" width="60.4609" height="60.4605" fill="#E5E5E5" stroke="black" stroke-width="0.5"/>
<rect x="333.503" y="385.58" width="60.4609" height="60.4605" fill="#E5E5E5" stroke="black" stroke-width="0.5"/>
<rect x="392.431" y="444.508" width="60.4609" height="60.4605" fill="white" stroke="black" stroke-width="0.5"/>
<path d="M451.36 444.508H511.821V504.969H451.36V444.508Z" fill="white" stroke="black" stroke-width="0.5"/>
<path d="M510.289 444.508H570.75V504.969H510.289V444.508Z" fill="white" stroke="black" stroke-width="0.5"/>
<rect x="392.431" y="503.437" width="60.4609" height="60.4605" fill="white" stroke="black" stroke-width="0.5"/>
<path d="M451.36 503.437H511.821V563.897H451.36V503.437Z" fill="white" stroke="black" stroke-width="0.5"/>
<path d="M510.289 503.437H570.75V563.897H510.289V503.437Z" fill="white" stroke="black" stroke-width="0.5"/>
<rect x="392.431" y="385.58" width="60.4609" height="60.4605" fill="white" stroke="black" stroke-width="0.5"/>
<path d="M451.36 385.58H511.821V446.04H451.36V385.58Z" fill="white" stroke="black" stroke-width="0.5"/>
<path d="M510.289 385.58H570.75V446.04H510.289V385.58Z" fill="white" stroke="black" stroke-width="0.5"/>
<rect x="40.8906" y="562.365" width="60.4609" height="60.4605" fill="#E5E5E5" stroke="black" stroke-width="0.5"/>
<rect x="99.8195" y="562.365" width="60.4609" height="60.4605" fill="#E5E5E5" stroke="black" stroke-width="0.5"/>
<rect x="158.748" y="562.365" width="60.4609" height="60.4605" fill="#E5E5E5" stroke="black" stroke-width="0.5"/>
<rect x="40.8906" y="621.294" width="60.4609" height="60.4605" fill="#E5E5E5" stroke="black" stroke-width="0.5"/>
<rect x="99.8195" y="621.294" width="60.4609" height="60.4605" fill="#E5E5E5" stroke="black" stroke-width="0.5"/>
<rect x="158.748" y="621.294" width="60.4609" height="60.4605" fill="#E5E5E5" stroke="black" stroke-width="0.5"/>
<rect x="40.8906" y="680.223" width="60.4609" height="60.4605" fill="#E5E5E5" stroke="black" stroke-width="0.5"/>
<rect x="99.8195" y="680.223" width="60.4609" height="60.4605" fill="#E5E5E5" stroke="black" stroke-width="0.5"/>
<rect x="158.748" y="680.223" width="60.4609" height="60.4605" fill="#E5E5E5" stroke="black" stroke-width="0.5"/>
<rect x="217.677" y="562.365" width="60.4609" height="60.4605" fill="white" stroke="black" stroke-width="0.5"/>
<rect x="276.606" y="562.365" width="60.4609" height="60.4605" fill="white" stroke="black" stroke-width="0.5"/>
<rect x="333.503" y="562.365" width="60.4609" height="60.4605" fill="white" stroke="black" stroke-width="0.5"/>
<rect x="217.677" y="621.294" width="60.4609" height="60.4605" fill="white" stroke="black" stroke-width="0.5"/>
<rect x="276.606" y="621.294" width="60.4609" height="60.4605" fill="white" stroke="black" stroke-width="0.5"/>
<rect x="333.503" y="621.294" width="60.4609" height="60.4605" fill="white" stroke="black" stroke-width="0.5"/>
<rect x="217.677" y="680.223" width="60.4609" height="60.4605" fill="white" stroke="black" stroke-width="0.5"/>
<rect x="276.606" y="680.223" width="60.4609" height="60.4605" fill="white" stroke="black" stroke-width="0.5"/>
<rect x="333.503" y="680.223" width="60.4609" height="60.4605" fill="white" stroke="black" stroke-width="0.5"/>
<rect x="392.431" y="562.365" width="60.4609" height="60.4605" fill="#E5E5E5" stroke="black" stroke-width="0.5"/>
<path d="M451.36 562.365H511.821V622.826H451.36V562.365Z" fill="#E5E5E5" stroke="black" stroke-width="0.5"/>
<path d="M510.289 562.365H570.75V622.826H510.289V562.365Z" fill="#E5E5E5" stroke="black" stroke-width="0.5"/>
<rect x="392.431" y="621.294" width="60.4609" height="60.4605" fill="#E5E5E5" stroke="black" stroke-width="0.5"/>
<path d="M451.36 621.294H511.821V681.755H451.36V621.294Z" fill="#E5E5E5" stroke="black" stroke-width="0.5"/>
<path d="M510.289 621.294H570.75V681.755H510.289V621.294Z" fill="#E5E5E5" stroke="black" stroke-width="0.5"/>
<rect x="392.431" y="680.223" width="60.4609" height="60.4605" fill="#E5E5E5" stroke="black" stroke-width="0.5"/>
<path d="M451.36 680.223H511.821V740.683H451.36V680.223Z" fill="#E5E5E5" stroke="black" stroke-width="0.5"/>
<path d="M510.289 680.223H570.75V740.683H510.289V680.223Z" fill="#E5E5E5" stroke="black" stroke-width="0.5"/>
<line x1="218.177" y1="208.544" x2="218.177" y2="740.933" stroke="black" stroke-width="1.5"/>
<line x1="392.931" y1="208.544" x2="392.931" y2="740.933" stroke="black" stroke-width="1.5"/>
<line x1="571" y1="386.08" x2="40.6406" y2="386.08" stroke="black" stroke-width="1.5"/>
<line x1="571" y1="562.865" x2="40.6406" y2="562.865" stroke="black" stroke-width="1.5"/>
<path d="M128.173 236.282C130.373 236.282 131.987 236.7 133.013 237.536C134.055 238.358 134.575 239.487 134.575 240.924C134.575 241.834 134.355 242.655 133.915 243.388C133.49 244.107 132.837 244.679 131.957 245.104C131.092 245.515 130.021 245.72 128.745 245.72C127.66 245.72 126.611 245.559 125.599 245.236C124.587 244.899 123.751 244.437 123.091 243.85L124.103 242.112C124.631 242.611 125.306 243.014 126.127 243.322C126.949 243.616 127.814 243.762 128.723 243.762C129.882 243.762 130.777 243.52 131.407 243.036C132.053 242.538 132.375 241.863 132.375 241.012C132.375 240.088 132.023 239.392 131.319 238.922C130.615 238.438 129.413 238.196 127.711 238.196H124.213L125.027 230.144H133.717V232.058H126.875L126.457 236.282H128.173Z" fill="black"/>
<path d="M540.675 415.1C542.875 415.1 544.489 415.518 545.515 416.354C546.557 417.175 547.077 418.305 547.077 419.742C547.077 420.651 546.857 421.473 546.417 422.206C545.992 422.925 545.339 423.497 544.459 423.922C543.594 424.333 542.523 424.538 541.247 424.538C540.162 424.538 539.113 424.377 538.101 424.054C537.089 423.717 536.253 423.255 535.593 422.668L536.605 420.93C537.133 421.429 537.808 421.832 538.629 422.14C539.451 422.433 540.316 422.58 541.225 422.58C542.384 422.58 543.279 422.338 543.909 421.854C544.555 421.355 544.877 420.681 544.877 419.83C544.877 418.906 544.525 418.209 543.821 417.74C543.117 417.256 541.915 417.014 540.213 417.014H536.715L537.529 408.962H546.219V410.876H539.377L538.959 415.1H540.675Z" fill="black"/>
<path d="M311.522 230.144V231.64L305.296 245.544H302.964L309.058 232.058H302.018V234.808H299.906V230.144H311.522Z" fill="black"/>
<path d="M193.664 350.033V351.529L187.438 365.433H185.106L191.2 351.947H184.16V354.697H182.048V350.033H193.664Z" fill="black"/>
<path d="M254.625 467.89V469.386L248.399 483.29H246.067L252.161 469.804H245.121V472.554H243.009V467.89H254.625Z" fill="black"/>
<path d="M429.38 585.747V587.243L423.154 601.147H420.822L426.916 587.661H419.876V590.411H417.764V585.747H429.38Z" fill="black"/>
<path d="M75.8068 642.644V644.14L69.5808 658.044H67.2488L73.3428 644.558H66.3028V647.308H64.1908V642.644H75.8068Z" fill="black"/>
<path d="M368.419 703.605V705.101L362.193 719.005H359.861L365.955 705.519H358.915V708.269H356.803V703.605H368.419Z" fill="black"/>
<path d="M75.6686 363.519V365.433H64.6026V363.937L70.8726 357.887C71.6353 357.154 72.1486 356.523 72.4126 355.995C72.6766 355.453 72.8086 354.91 72.8086 354.367C72.8086 353.561 72.5226 352.937 71.9506 352.497C71.3933 352.043 70.5866 351.815 69.5306 351.815C67.8293 351.815 66.5166 352.373 65.5926 353.487L64.0966 352.189C64.698 351.456 65.4826 350.884 66.4506 350.473C67.4333 350.063 68.526 349.857 69.7286 349.857C71.342 349.857 72.6253 350.246 73.5786 351.023C74.532 351.786 75.0086 352.827 75.0086 354.147C75.0086 354.969 74.8326 355.746 74.4806 356.479C74.1286 357.213 73.4613 358.049 72.4786 358.987L67.7706 363.519H75.6686Z" fill="black"/>
<path d="M136.629 422.448V424.362H125.563V422.866L131.833 416.816C132.596 416.083 133.109 415.452 133.373 414.924C133.637 414.381 133.769 413.839 133.769 413.296C133.769 412.489 133.483 411.866 132.911 411.426C132.354 410.971 131.547 410.744 130.491 410.744C128.79 410.744 127.477 411.301 126.553 412.416L125.057 411.118C125.659 410.385 126.443 409.813 127.411 409.402C128.394 408.991 129.487 408.786 130.689 408.786C132.303 408.786 133.586 409.175 134.539 409.952C135.493 410.715 135.969 411.756 135.969 413.076C135.969 413.897 135.793 414.675 135.441 415.408C135.089 416.141 134.422 416.977 133.439 417.916L128.731 422.448H136.629Z" fill="black"/>
<path d="M311.384 656.13V658.044H300.318V656.548L306.588 650.498C307.351 649.765 307.864 649.134 308.128 648.606C308.392 648.063 308.524 647.521 308.524 646.978C308.524 646.171 308.238 645.548 307.666 645.108C307.109 644.653 306.302 644.426 305.246 644.426C303.545 644.426 302.232 644.983 301.308 646.098L299.812 644.8C300.413 644.067 301.198 643.495 302.166 643.084C303.149 642.673 304.241 642.468 305.444 642.468C307.057 642.468 308.341 642.857 309.294 643.634C310.247 644.397 310.724 645.438 310.724 646.758C310.724 647.579 310.548 648.357 310.196 649.09C309.844 649.823 309.177 650.659 308.194 651.598L303.486 656.13H311.384Z" fill="black"/>
<path d="M547.099 479.344V481.258H536.033V479.762L542.303 473.712C543.066 472.979 543.579 472.348 543.843 471.82C544.107 471.278 544.239 470.735 544.239 470.192C544.239 469.386 543.953 468.762 543.381 468.322C542.824 467.868 542.017 467.64 540.961 467.64C539.26 467.64 537.947 468.198 537.023 469.312L535.527 468.014C536.129 467.281 536.913 466.709 537.881 466.298C538.864 465.888 539.957 465.682 541.159 465.682C542.773 465.682 544.056 466.071 545.009 466.848C545.963 467.611 546.439 468.652 546.439 469.972C546.439 470.794 546.263 471.571 545.911 472.304C545.559 473.038 544.892 473.874 543.909 474.812L539.201 479.344H547.099Z" fill="black"/>
<path d="M71.8637 406.93V422.33H69.6857V408.844H66.2097V406.93H71.8637Z" fill="black"/>
<path d="M307.579 585.747V601.147H305.401V587.661H301.925V585.747H307.579Z" fill="black"/>
<path d="M543.294 644.676V660.076H541.116V646.59H537.64V644.676H543.294Z" fill="black"/>
<path d="M187.224 288.897C189.292 288.897 190.883 289.564 191.998 290.899C193.127 292.234 193.692 294.126 193.692 296.575C193.692 298.291 193.384 299.758 192.768 300.975C192.166 302.178 191.316 303.094 190.216 303.725C189.13 304.341 187.862 304.649 186.41 304.649C185.662 304.649 184.958 304.576 184.298 304.429C183.638 304.268 183.066 304.04 182.582 303.747L183.418 302.031C184.166 302.515 185.156 302.757 186.388 302.757C187.986 302.757 189.233 302.266 190.128 301.283C191.037 300.286 191.492 298.841 191.492 296.949V296.399C191.052 297.059 190.443 297.565 189.666 297.917C188.888 298.254 188.016 298.423 187.048 298.423C186.036 298.423 185.126 298.232 184.32 297.851C183.528 297.47 182.904 296.927 182.45 296.223C182.01 295.504 181.79 294.683 181.79 293.759C181.79 292.791 182.024 291.94 182.494 291.207C182.978 290.474 183.63 289.909 184.452 289.513C185.273 289.102 186.197 288.897 187.224 288.897ZM187.422 296.641C188.111 296.641 188.727 296.509 189.27 296.245C189.812 295.981 190.23 295.622 190.524 295.167C190.832 294.712 190.986 294.206 190.986 293.649C190.986 293.106 190.839 292.615 190.546 292.175C190.267 291.72 189.849 291.361 189.292 291.097C188.749 290.818 188.089 290.679 187.312 290.679C186.3 290.679 185.478 290.95 184.848 291.493C184.232 292.036 183.924 292.762 183.924 293.671C183.924 294.58 184.239 295.306 184.87 295.849C185.5 296.377 186.351 296.641 187.422 296.641Z" fill="black"/>
<path d="M361.978 644.5C364.046 644.5 365.637 645.167 366.752 646.502C367.881 647.837 368.446 649.729 368.446 652.178C368.446 653.894 368.138 655.361 367.522 656.578C366.921 657.781 366.07 658.697 364.97 659.328C363.885 659.944 362.616 660.252 361.164 660.252C360.416 660.252 359.712 660.179 359.052 660.032C358.392 659.871 357.82 659.643 357.336 659.35L358.172 657.634C358.92 658.118 359.91 658.36 361.142 658.36C362.741 658.36 363.987 657.869 364.882 656.886C365.791 655.889 366.246 654.444 366.246 652.552V652.002C365.806 652.662 365.197 653.168 364.42 653.52C363.643 653.857 362.77 654.026 361.802 654.026C360.79 654.026 359.881 653.835 359.074 653.454C358.282 653.073 357.659 652.53 357.204 651.826C356.764 651.107 356.544 650.286 356.544 649.362C356.544 648.394 356.779 647.543 357.248 646.81C357.732 646.077 358.385 645.512 359.206 645.116C360.027 644.705 360.951 644.5 361.978 644.5ZM362.176 652.244C362.865 652.244 363.481 652.112 364.024 651.848C364.567 651.584 364.985 651.225 365.278 650.77C365.586 650.315 365.74 649.809 365.74 649.252C365.74 648.709 365.593 648.218 365.3 647.778C365.021 647.323 364.603 646.964 364.046 646.7C363.503 646.421 362.843 646.282 362.066 646.282C361.054 646.282 360.233 646.553 359.602 647.096C358.986 647.639 358.678 648.365 358.678 649.274C358.678 650.183 358.993 650.909 359.624 651.452C360.255 651.98 361.105 652.244 362.176 652.244Z" fill="black"/>
<path d="M128.295 585.571C130.363 585.571 131.954 586.239 133.069 587.573C134.198 588.908 134.763 590.8 134.763 593.249C134.763 594.965 134.455 596.432 133.839 597.649C133.237 598.852 132.387 599.769 131.287 600.399C130.201 601.015 128.933 601.323 127.481 601.323C126.733 601.323 126.029 601.25 125.369 601.103C124.709 600.942 124.137 600.715 123.653 600.421L124.489 598.705C125.237 599.189 126.227 599.431 127.459 599.431C129.057 599.431 130.304 598.94 131.199 597.957C132.108 596.96 132.563 595.515 132.563 593.623V593.073C132.123 593.733 131.514 594.239 130.737 594.591C129.959 594.929 129.087 595.097 128.119 595.097C127.107 595.097 126.197 594.907 125.391 594.525C124.599 594.144 123.975 593.601 123.521 592.897C123.081 592.179 122.861 591.357 122.861 590.433C122.861 589.465 123.095 588.615 123.565 587.881C124.049 587.148 124.701 586.583 125.523 586.187C126.344 585.777 127.268 585.571 128.295 585.571ZM128.493 593.315C129.182 593.315 129.798 593.183 130.341 592.919C130.883 592.655 131.301 592.296 131.595 591.841C131.903 591.387 132.057 590.881 132.057 590.323C132.057 589.781 131.91 589.289 131.617 588.849C131.338 588.395 130.92 588.035 130.363 587.771C129.82 587.493 129.16 587.353 128.383 587.353C127.371 587.353 126.549 587.625 125.919 588.167C125.303 588.71 124.995 589.436 124.995 590.345C124.995 591.255 125.31 591.981 125.941 592.523C126.571 593.051 127.422 593.315 128.493 593.315Z" fill="black"/>
<path d="M306.477 297.573C307.988 297.72 309.139 298.189 309.931 298.981C310.723 299.758 311.119 300.756 311.119 301.973C311.119 302.853 310.899 303.652 310.459 304.371C310.019 305.075 309.359 305.64 308.479 306.065C307.614 306.476 306.551 306.681 305.289 306.681C304.189 306.681 303.133 306.52 302.121 306.197C301.109 305.86 300.281 305.398 299.635 304.811L300.647 303.073C301.175 303.572 301.85 303.975 302.671 304.283C303.493 304.576 304.365 304.723 305.289 304.723C306.433 304.723 307.321 304.481 307.951 303.997C308.597 303.513 308.919 302.846 308.919 301.995C308.919 301.144 308.604 300.484 307.973 300.015C307.343 299.546 306.389 299.311 305.113 299.311H303.881V297.771L307.753 293.019H300.339V291.105H310.503V292.601L306.477 297.573Z" fill="black"/>
<path d="M424.335 472.326C425.846 472.473 426.997 472.942 427.789 473.734C428.581 474.512 428.977 475.509 428.977 476.726C428.977 477.606 428.757 478.406 428.317 479.124C427.877 479.828 427.217 480.393 426.337 480.818C425.472 481.229 424.408 481.434 423.147 481.434C422.047 481.434 420.991 481.273 419.979 480.95C418.967 480.613 418.138 480.151 417.493 479.564L418.505 477.826C419.033 478.325 419.708 478.728 420.529 479.036C421.35 479.33 422.223 479.476 423.147 479.476C424.291 479.476 425.178 479.234 425.809 478.75C426.454 478.266 426.777 477.599 426.777 476.748C426.777 475.898 426.462 475.238 425.831 474.768C425.2 474.299 424.247 474.064 422.971 474.064H421.739V472.524L425.611 467.772H418.197V465.858H428.361V467.354L424.335 472.326Z" fill="black"/>
<path d="M249.581 710.073C251.091 710.219 252.243 710.689 253.035 711.481C253.827 712.258 254.223 713.255 254.223 714.473C254.223 715.353 254.003 716.152 253.563 716.871C253.123 717.575 252.463 718.139 251.583 718.565C250.717 718.975 249.654 719.181 248.393 719.181C247.293 719.181 246.237 719.019 245.225 718.697C244.213 718.359 243.384 717.897 242.739 717.311L243.751 715.573C244.279 716.071 244.953 716.475 245.775 716.783C246.596 717.076 247.469 717.223 248.393 717.223C249.537 717.223 250.424 716.981 251.055 716.497C251.7 716.013 252.023 715.345 252.023 714.495C252.023 713.644 251.707 712.984 251.077 712.515C250.446 712.045 249.493 711.811 248.217 711.811H246.985V710.271L250.857 705.519H243.443V703.605H253.607V705.101L249.581 710.073Z" fill="black"/>
<path d="M366.11 296.399C366.99 296.736 367.665 297.22 368.134 297.851C368.603 298.482 368.838 299.237 368.838 300.117C368.838 301.041 368.589 301.848 368.09 302.537C367.591 303.212 366.88 303.732 365.956 304.099C365.032 304.466 363.947 304.649 362.7 304.649C361.468 304.649 360.39 304.466 359.466 304.099C358.557 303.732 357.853 303.212 357.354 302.537C356.855 301.848 356.606 301.041 356.606 300.117C356.606 299.237 356.833 298.482 357.288 297.851C357.757 297.22 358.432 296.736 359.312 296.399C358.608 296.062 358.073 295.614 357.706 295.057C357.339 294.5 357.156 293.84 357.156 293.077C357.156 292.226 357.383 291.486 357.838 290.855C358.307 290.224 358.96 289.74 359.796 289.403C360.632 289.066 361.6 288.897 362.7 288.897C363.815 288.897 364.79 289.066 365.626 289.403C366.477 289.74 367.129 290.224 367.584 290.855C368.053 291.486 368.288 292.226 368.288 293.077C368.288 293.825 368.097 294.485 367.716 295.057C367.349 295.614 366.814 296.062 366.11 296.399ZM362.7 290.679C361.659 290.679 360.837 290.906 360.236 291.361C359.635 291.801 359.334 292.402 359.334 293.165C359.334 293.928 359.627 294.529 360.214 294.969C360.815 295.409 361.644 295.629 362.7 295.629C363.771 295.629 364.607 295.409 365.208 294.969C365.824 294.529 366.132 293.928 366.132 293.165C366.132 292.402 365.817 291.801 365.186 291.361C364.57 290.906 363.741 290.679 362.7 290.679ZM362.7 302.867C363.917 302.867 364.878 302.618 365.582 302.119C366.286 301.606 366.638 300.916 366.638 300.051C366.638 299.2 366.286 298.533 365.582 298.049C364.878 297.55 363.917 297.301 362.7 297.301C361.483 297.301 360.529 297.55 359.84 298.049C359.151 298.533 358.806 299.2 358.806 300.051C358.806 300.916 359.151 301.606 359.84 302.119C360.529 302.618 361.483 302.867 362.7 302.867Z" fill="black"/>
<path d="M486 473.184C486.88 473.522 487.554 474.006 488.024 474.636C488.493 475.267 488.728 476.022 488.728 476.902C488.728 477.826 488.478 478.633 487.98 479.322C487.481 479.997 486.77 480.518 485.846 480.884C484.922 481.251 483.836 481.434 482.59 481.434C481.358 481.434 480.28 481.251 479.356 480.884C478.446 480.518 477.742 479.997 477.244 479.322C476.745 478.633 476.496 477.826 476.496 476.902C476.496 476.022 476.723 475.267 477.178 474.636C477.647 474.006 478.322 473.522 479.202 473.184C478.498 472.847 477.962 472.4 477.596 471.842C477.229 471.285 477.046 470.625 477.046 469.862C477.046 469.012 477.273 468.271 477.728 467.64C478.197 467.01 478.85 466.526 479.686 466.188C480.522 465.851 481.49 465.682 482.59 465.682C483.704 465.682 484.68 465.851 485.516 466.188C486.366 466.526 487.019 467.01 487.474 467.64C487.943 468.271 488.178 469.012 488.178 469.862C488.178 470.61 487.987 471.27 487.606 471.842C487.239 472.4 486.704 472.847 486 473.184ZM482.59 467.464C481.548 467.464 480.727 467.692 480.126 468.146C479.524 468.586 479.224 469.188 479.224 469.95C479.224 470.713 479.517 471.314 480.104 471.754C480.705 472.194 481.534 472.414 482.59 472.414C483.66 472.414 484.496 472.194 485.098 471.754C485.714 471.314 486.022 470.713 486.022 469.95C486.022 469.188 485.706 468.586 485.076 468.146C484.46 467.692 483.631 467.464 482.59 467.464ZM482.59 479.652C483.807 479.652 484.768 479.403 485.472 478.904C486.176 478.391 486.528 477.702 486.528 476.836C486.528 475.986 486.176 475.318 485.472 474.834C484.768 474.336 483.807 474.086 482.59 474.086C481.372 474.086 480.419 474.336 479.73 474.834C479.04 475.318 478.696 475.986 478.696 476.836C478.696 477.702 479.04 478.391 479.73 478.904C480.419 479.403 481.372 479.652 482.59 479.652Z" fill="black"/>
<path d="M309.213 532.113C310.093 532.45 310.768 532.934 311.237 533.565C311.707 534.196 311.941 534.951 311.941 535.831C311.941 536.755 311.692 537.562 311.193 538.251C310.695 538.926 309.983 539.446 309.059 539.813C308.135 540.18 307.05 540.363 305.803 540.363C304.571 540.363 303.493 540.18 302.569 539.813C301.66 539.446 300.956 538.926 300.457 538.251C299.959 537.562 299.709 536.755 299.709 535.831C299.709 534.951 299.937 534.196 300.391 533.565C300.861 532.934 301.535 532.45 302.415 532.113C301.711 531.776 301.176 531.328 300.809 530.771C300.443 530.214 300.259 529.554 300.259 528.791C300.259 527.94 300.487 527.2 300.941 526.569C301.411 525.938 302.063 525.454 302.899 525.117C303.735 524.78 304.703 524.611 305.803 524.611C306.918 524.611 307.893 524.78 308.729 525.117C309.58 525.454 310.233 525.938 310.687 526.569C311.157 527.2 311.391 527.94 311.391 528.791C311.391 529.539 311.201 530.199 310.819 530.771C310.453 531.328 309.917 531.776 309.213 532.113ZM305.803 526.393C304.762 526.393 303.941 526.62 303.339 527.075C302.738 527.515 302.437 528.116 302.437 528.879C302.437 529.642 302.731 530.243 303.317 530.683C303.919 531.123 304.747 531.343 305.803 531.343C306.874 531.343 307.71 531.123 308.311 530.683C308.927 530.243 309.235 529.642 309.235 528.879C309.235 528.116 308.92 527.515 308.289 527.075C307.673 526.62 306.845 526.393 305.803 526.393ZM305.803 538.581C307.021 538.581 307.981 538.332 308.685 537.833C309.389 537.32 309.741 536.63 309.741 535.765C309.741 534.914 309.389 534.247 308.685 533.763C307.981 533.264 307.021 533.015 305.803 533.015C304.586 533.015 303.633 533.264 302.943 533.763C302.254 534.247 301.909 534.914 301.909 535.765C301.909 536.63 302.254 537.32 302.943 537.833C303.633 538.332 304.586 538.581 305.803 538.581Z" fill="black"/>
<path d="M73.4979 710.931C74.3779 711.268 75.0526 711.752 75.5219 712.383C75.9913 713.013 76.2259 713.769 76.2259 714.649C76.2259 715.573 75.9766 716.379 75.4779 717.069C74.9793 717.743 74.2679 718.264 73.3439 718.631C72.4199 718.997 71.3346 719.181 70.0879 719.181C68.8559 719.181 67.7779 718.997 66.8539 718.631C65.9446 718.264 65.2406 717.743 64.7419 717.069C64.2433 716.379 63.9939 715.573 63.9939 714.649C63.9939 713.769 64.2213 713.013 64.6759 712.383C65.1453 711.752 65.8199 711.268 66.6999 710.931C65.9959 710.593 65.4606 710.146 65.0939 709.589C64.7273 709.031 64.5439 708.371 64.5439 707.609C64.5439 706.758 64.7713 706.017 65.2259 705.387C65.6953 704.756 66.3479 704.272 67.1839 703.935C68.0199 703.597 68.9879 703.429 70.0879 703.429C71.2026 703.429 72.1779 703.597 73.0139 703.935C73.8646 704.272 74.5173 704.756 74.9719 705.387C75.4413 706.017 75.6759 706.758 75.6759 707.609C75.6759 708.357 75.4853 709.017 75.1039 709.589C74.7373 710.146 74.2019 710.593 73.4979 710.931ZM70.0879 705.211C69.0466 705.211 68.2253 705.438 67.6239 705.893C67.0226 706.333 66.7219 706.934 66.7219 707.697C66.7219 708.459 67.0153 709.061 67.6019 709.501C68.2033 709.941 69.0319 710.161 70.0879 710.161C71.1586 710.161 71.9946 709.941 72.5959 709.501C73.2119 709.061 73.5199 708.459 73.5199 707.697C73.5199 706.934 73.2046 706.333 72.5739 705.893C71.9579 705.438 71.1293 705.211 70.0879 705.211ZM70.0879 717.399C71.3053 717.399 72.2659 717.149 72.9699 716.651C73.6739 716.137 74.0259 715.448 74.0259 714.583C74.0259 713.732 73.6739 713.065 72.9699 712.581C72.2659 712.082 71.3053 711.833 70.0879 711.833C68.8706 711.833 67.9173 712.082 67.2279 712.581C66.5386 713.065 66.1939 713.732 66.1939 714.583C66.1939 715.448 66.5386 716.137 67.2279 716.651C67.9173 717.149 68.8706 717.399 70.0879 717.399Z" fill="black"/>
<path d="M361.857 356.171C364.057 356.171 365.67 356.589 366.697 357.425C367.738 358.247 368.259 359.376 368.259 360.813C368.259 361.723 368.039 362.544 367.599 363.277C367.173 363.996 366.521 364.568 365.641 364.993C364.775 365.404 363.705 365.609 362.429 365.609C361.343 365.609 360.295 365.448 359.283 365.125C358.271 364.788 357.435 364.326 356.775 363.739L357.787 362.001C358.315 362.5 358.989 362.903 359.811 363.211C360.632 363.505 361.497 363.651 362.407 363.651C363.565 363.651 364.46 363.409 365.091 362.925C365.736 362.427 366.059 361.752 366.059 360.901C366.059 359.977 365.707 359.281 365.003 358.811C364.299 358.327 363.096 358.085 361.395 358.085H357.897L358.711 350.033H367.401V351.947H360.559L360.141 356.171H361.857Z" fill="black"/>
<path d="M189.134 709.743C191.334 709.743 192.948 710.161 193.974 710.997C195.016 711.818 195.536 712.947 195.536 714.385C195.536 715.294 195.316 716.115 194.876 716.849C194.451 717.567 193.798 718.139 192.918 718.565C192.053 718.975 190.982 719.181 189.706 719.181C188.621 719.181 187.572 719.019 186.56 718.697C185.548 718.359 184.712 717.897 184.052 717.311L185.064 715.573C185.592 716.071 186.267 716.475 187.088 716.783C187.91 717.076 188.775 717.223 189.684 717.223C190.843 717.223 191.738 716.981 192.368 716.497C193.014 715.998 193.336 715.323 193.336 714.473C193.336 713.549 192.984 712.852 192.28 712.383C191.576 711.899 190.374 711.657 188.672 711.657H185.174L185.988 703.605H194.678V705.519H187.836L187.418 709.743H189.134Z" fill="black"/>
<path d="M481.746 650.814C483.946 650.814 485.56 651.232 486.586 652.068C487.628 652.889 488.148 654.019 488.148 655.456C488.148 656.365 487.928 657.187 487.488 657.92C487.063 658.639 486.41 659.211 485.53 659.636C484.665 660.047 483.594 660.252 482.318 660.252C481.233 660.252 480.184 660.091 479.172 659.768C478.16 659.431 477.324 658.969 476.664 658.382L477.676 656.644C478.204 657.143 478.879 657.546 479.7 657.854C480.522 658.147 481.387 658.294 482.296 658.294C483.455 658.294 484.35 658.052 484.98 657.568C485.626 657.069 485.948 656.395 485.948 655.544C485.948 654.62 485.596 653.923 484.892 653.454C484.188 652.97 482.986 652.728 481.284 652.728H477.786L478.6 644.676H487.29V646.59H480.448L480.03 650.814H481.746Z" fill="black"/>
<path d="M69.2446 530.925C71.4446 530.925 73.058 531.343 74.0846 532.179C75.126 533 75.6466 534.13 75.6466 535.567C75.6466 536.476 75.4266 537.298 74.9866 538.031C74.5613 538.75 73.9086 539.322 73.0286 539.747C72.1633 540.158 71.0926 540.363 69.8166 540.363C68.7313 540.363 67.6826 540.202 66.6706 539.879C65.6586 539.542 64.8226 539.08 64.1626 538.493L65.1746 536.755C65.7026 537.254 66.3773 537.657 67.1986 537.965C68.02 538.258 68.8853 538.405 69.7946 538.405C70.9533 538.405 71.848 538.163 72.4786 537.679C73.124 537.18 73.4466 536.506 73.4466 535.655C73.4466 534.731 73.0946 534.034 72.3906 533.565C71.6866 533.081 70.484 532.839 68.7826 532.839H65.2846L66.0986 524.787H74.7886V526.701H67.9466L67.5286 530.925H69.2446Z" fill="black"/>
<path d="M425.039 237.47C425.919 237.808 426.593 238.292 427.063 238.922C427.532 239.553 427.767 240.308 427.767 241.188C427.767 242.112 427.517 242.919 427.019 243.608C426.52 244.283 425.809 244.804 424.885 245.17C423.961 245.537 422.875 245.72 421.629 245.72C420.397 245.72 419.319 245.537 418.395 245.17C417.485 244.804 416.781 244.283 416.283 243.608C415.784 242.919 415.535 242.112 415.535 241.188C415.535 240.308 415.762 239.553 416.217 238.922C416.686 238.292 417.361 237.808 418.241 237.47C417.537 237.133 417.001 236.686 416.635 236.128C416.268 235.571 416.085 234.911 416.085 234.148C416.085 233.298 416.312 232.557 416.767 231.926C417.236 231.296 417.889 230.812 418.725 230.474C419.561 230.137 420.529 229.968 421.629 229.968C422.743 229.968 423.719 230.137 424.555 230.474C425.405 230.812 426.058 231.296 426.513 231.926C426.982 232.557 427.217 233.298 427.217 234.148C427.217 234.896 427.026 235.556 426.645 236.128C426.278 236.686 425.743 237.133 425.039 237.47ZM421.629 231.75C420.587 231.75 419.766 231.978 419.165 232.432C418.563 232.872 418.263 233.474 418.263 234.236C418.263 234.999 418.556 235.6 419.143 236.04C419.744 236.48 420.573 236.7 421.629 236.7C422.699 236.7 423.535 236.48 424.137 236.04C424.753 235.6 425.061 234.999 425.061 234.236C425.061 233.474 424.745 232.872 424.115 232.432C423.499 231.978 422.67 231.75 421.629 231.75ZM421.629 243.938C422.846 243.938 423.807 243.689 424.511 243.19C425.215 242.677 425.567 241.988 425.567 241.122C425.567 240.272 425.215 239.604 424.511 239.12C423.807 238.622 422.846 238.372 421.629 238.372C420.411 238.372 419.458 238.622 418.769 239.12C418.079 239.604 417.735 240.272 417.735 241.122C417.735 241.988 418.079 242.677 418.769 243.19C419.458 243.689 420.411 243.938 421.629 243.938Z" fill="black"/>
<path d="M479.836 229.968C481.904 229.968 483.495 230.636 484.61 231.97C485.739 233.305 486.304 235.197 486.304 237.646C486.304 239.362 485.996 240.829 485.38 242.046C484.778 243.249 483.928 244.166 482.828 244.796C481.742 245.412 480.474 245.72 479.022 245.72C478.274 245.72 477.57 245.647 476.91 245.5C476.25 245.339 475.678 245.112 475.194 244.818L476.03 243.102C476.778 243.586 477.768 243.828 479 243.828C480.598 243.828 481.845 243.337 482.74 242.354C483.649 241.357 484.104 239.912 484.104 238.02V237.47C483.664 238.13 483.055 238.636 482.278 238.988C481.5 239.326 480.628 239.494 479.66 239.494C478.648 239.494 477.738 239.304 476.932 238.922C476.14 238.541 475.516 237.998 475.062 237.294C474.622 236.576 474.402 235.754 474.402 234.83C474.402 233.862 474.636 233.012 475.106 232.278C475.59 231.545 476.242 230.98 477.064 230.584C477.885 230.174 478.809 229.968 479.836 229.968ZM480.034 237.712C480.723 237.712 481.339 237.58 481.882 237.316C482.424 237.052 482.842 236.693 483.136 236.238C483.444 235.784 483.598 235.278 483.598 234.72C483.598 234.178 483.451 233.686 483.158 233.246C482.879 232.792 482.461 232.432 481.904 232.168C481.361 231.89 480.701 231.75 479.924 231.75C478.912 231.75 478.09 232.022 477.46 232.564C476.844 233.107 476.536 233.833 476.536 234.742C476.536 235.652 476.851 236.378 477.482 236.92C478.112 237.448 478.963 237.712 480.034 237.712Z" fill="black"/>
<path d="M21.8494 232.344V243.544H19.7694V234.088H17.4014V232.344H21.8494Z" fill="black"/>
<path d="M71.6342 185.8V197H69.5542V187.544H67.1862V185.8H71.6342Z" fill="black"/>
<path d="M133.193 195.24V197H124.937V195.608L129.385 191.384C129.887 190.904 130.223 190.488 130.393 190.136C130.575 189.773 130.665 189.416 130.665 189.064C130.665 188.541 130.489 188.141 130.137 187.864C129.785 187.587 129.268 187.448 128.585 187.448C127.444 187.448 126.569 187.837 125.961 188.616L124.505 187.496C124.943 186.909 125.529 186.456 126.265 186.136C127.012 185.805 127.844 185.64 128.761 185.64C129.977 185.64 130.948 185.928 131.673 186.504C132.399 187.08 132.761 187.864 132.761 188.856C132.761 189.464 132.633 190.035 132.377 190.568C132.121 191.101 131.631 191.709 130.905 192.392L127.913 195.24H133.193Z" fill="black"/>
<path d="M188.778 190.424C189.813 190.552 190.602 190.904 191.146 191.48C191.69 192.056 191.962 192.776 191.962 193.64C191.962 194.291 191.797 194.883 191.466 195.416C191.136 195.949 190.634 196.376 189.962 196.696C189.301 197.005 188.49 197.16 187.53 197.16C186.73 197.16 185.957 197.048 185.21 196.824C184.474 196.589 183.845 196.269 183.322 195.864L184.218 194.248C184.624 194.589 185.114 194.861 185.69 195.064C186.277 195.256 186.88 195.352 187.498 195.352C188.234 195.352 188.81 195.203 189.226 194.904C189.653 194.595 189.866 194.179 189.866 193.656C189.866 193.133 189.664 192.728 189.258 192.44C188.864 192.141 188.256 191.992 187.434 191.992H186.41V190.568L188.954 187.544H183.866V185.8H191.498V187.192L188.778 190.424Z" fill="black"/>
<path d="M253.166 194.456H251.182V197H249.166V194.456H243.022V193.016L248.542 185.8H250.766L245.566 192.696H249.23V190.44H251.182V192.696H253.166V194.456Z" fill="black"/>
<path d="M304.34 190.136C305.919 190.136 307.087 190.445 307.844 191.064C308.602 191.672 308.98 192.504 308.98 193.56C308.98 194.232 308.815 194.84 308.484 195.384C308.154 195.928 307.658 196.36 306.996 196.68C306.335 197 305.519 197.16 304.548 197.16C303.748 197.16 302.975 197.048 302.228 196.824C301.482 196.589 300.852 196.269 300.34 195.864L301.22 194.248C301.636 194.589 302.132 194.861 302.708 195.064C303.295 195.256 303.898 195.352 304.516 195.352C305.252 195.352 305.828 195.203 306.244 194.904C306.671 194.595 306.884 194.173 306.884 193.64C306.884 193.064 306.655 192.632 306.196 192.344C305.748 192.045 304.975 191.896 303.876 191.896H301.172L301.748 185.8H308.324V187.544H303.508L303.268 190.136H304.34Z" fill="black"/>
<path d="M364.509 190.088C365.245 190.088 365.907 190.232 366.493 190.52C367.08 190.797 367.539 191.197 367.869 191.72C368.2 192.243 368.365 192.845 368.365 193.528C368.365 194.253 368.184 194.893 367.821 195.448C367.459 195.992 366.968 196.413 366.349 196.712C365.731 197.011 365.037 197.16 364.269 197.16C362.733 197.16 361.539 196.68 360.685 195.72C359.843 194.76 359.421 193.384 359.421 191.592C359.421 190.333 359.651 189.261 360.109 188.376C360.568 187.48 361.208 186.803 362.029 186.344C362.861 185.875 363.821 185.64 364.909 185.64C365.485 185.64 366.024 185.704 366.525 185.832C367.037 185.949 367.48 186.125 367.853 186.36L367.085 187.928C366.531 187.565 365.821 187.384 364.957 187.384C363.88 187.384 363.037 187.715 362.429 188.376C361.821 189.037 361.517 189.992 361.517 191.24V191.256C361.848 190.872 362.269 190.584 362.781 190.392C363.293 190.189 363.869 190.088 364.509 190.088ZM364.157 195.528C364.808 195.528 365.336 195.357 365.741 195.016C366.147 194.664 366.349 194.2 366.349 193.624C366.349 193.037 366.147 192.573 365.741 192.232C365.336 191.891 364.792 191.72 364.109 191.72C363.437 191.72 362.888 191.901 362.461 192.264C362.045 192.627 361.837 193.085 361.837 193.64C361.837 194.184 362.04 194.637 362.445 195C362.861 195.352 363.432 195.528 364.157 195.528Z" fill="black"/>
<path d="M426.947 185.8V187.192L422.595 197H420.371L424.579 187.56H420.179V189.464H418.243V185.8H426.947Z" fill="black"/>
<path d="M483.324 191.112C483.911 191.379 484.359 191.741 484.668 192.2C484.988 192.648 485.148 193.176 485.148 193.784C485.148 194.467 484.956 195.064 484.572 195.576C484.199 196.088 483.665 196.483 482.972 196.76C482.279 197.027 481.473 197.16 480.556 197.16C479.639 197.16 478.833 197.027 478.14 196.76C477.457 196.483 476.929 196.088 476.556 195.576C476.183 195.064 475.996 194.467 475.996 193.784C475.996 193.176 476.151 192.648 476.46 192.2C476.769 191.741 477.212 191.379 477.788 191.112C477.34 190.867 476.993 190.547 476.748 190.152C476.513 189.747 476.396 189.283 476.396 188.76C476.396 188.131 476.567 187.581 476.908 187.112C477.26 186.643 477.751 186.28 478.38 186.024C479.009 185.768 479.735 185.64 480.556 185.64C481.388 185.64 482.119 185.768 482.748 186.024C483.377 186.28 483.868 186.643 484.22 187.112C484.572 187.581 484.748 188.131 484.748 188.76C484.748 189.283 484.625 189.741 484.38 190.136C484.135 190.531 483.783 190.856 483.324 191.112ZM480.556 187.272C479.905 187.272 479.388 187.411 479.004 187.688C478.631 187.965 478.444 188.355 478.444 188.856C478.444 189.336 478.631 189.72 479.004 190.008C479.388 190.285 479.905 190.424 480.556 190.424C481.217 190.424 481.74 190.285 482.124 190.008C482.508 189.72 482.7 189.336 482.7 188.856C482.7 188.355 482.503 187.965 482.108 187.688C481.724 187.411 481.207 187.272 480.556 187.272ZM480.556 195.528C481.324 195.528 481.932 195.368 482.38 195.048C482.828 194.728 483.052 194.285 483.052 193.72C483.052 193.165 482.828 192.728 482.38 192.408C481.932 192.088 481.324 191.928 480.556 191.928C479.788 191.928 479.185 192.088 478.748 192.408C478.311 192.728 478.092 193.165 478.092 193.72C478.092 194.285 478.311 194.728 478.748 195.048C479.185 195.368 479.788 195.528 480.556 195.528Z" fill="black"/>
<path d="M539.984 185.64C541.52 185.64 542.709 186.12 543.552 187.08C544.405 188.04 544.832 189.416 544.832 191.208C544.832 192.467 544.603 193.544 544.144 194.44C543.685 195.325 543.04 196.003 542.208 196.472C541.387 196.931 540.432 197.16 539.344 197.16C538.768 197.16 538.224 197.101 537.712 196.984C537.211 196.856 536.773 196.675 536.4 196.44L537.168 194.872C537.723 195.235 538.432 195.416 539.296 195.416C540.373 195.416 541.216 195.085 541.824 194.424C542.432 193.763 542.736 192.808 542.736 191.56V191.544C542.405 191.928 541.984 192.221 541.472 192.424C540.96 192.616 540.384 192.712 539.744 192.712C539.008 192.712 538.347 192.573 537.76 192.296C537.173 192.008 536.715 191.603 536.384 191.08C536.053 190.557 535.888 189.955 535.888 189.272C535.888 188.547 536.069 187.912 536.432 187.368C536.795 186.813 537.285 186.387 537.904 186.088C538.523 185.789 539.216 185.64 539.984 185.64ZM540.144 191.08C540.816 191.08 541.36 190.899 541.776 190.536C542.203 190.173 542.416 189.715 542.416 189.16C542.416 188.616 542.208 188.168 541.792 187.816C541.387 187.453 540.821 187.272 540.096 187.272C539.445 187.272 538.917 187.448 538.512 187.8C538.107 188.141 537.904 188.6 537.904 189.176C537.904 189.763 538.107 190.227 538.512 190.568C538.917 190.909 539.461 191.08 540.144 191.08Z" fill="black"/>
<path d="M24.48 302.745V304.505H16.224V303.113L20.672 298.889C21.1734 298.409 21.5094 297.993 21.68 297.641C21.8614 297.278 21.952 296.921 21.952 296.569C21.952 296.046 21.776 295.646 21.424 295.369C21.072 295.091 20.5547 294.953 19.872 294.953C18.7307 294.953 17.856 295.342 17.248 296.121L15.792 295.001C16.2294 294.414 16.816 293.961 17.552 293.641C18.2987 293.31 19.1307 293.145 20.048 293.145C21.264 293.145 22.2347 293.433 22.96 294.009C23.6854 294.585 24.048 295.369 24.048 296.361C24.048 296.969 23.92 297.539 23.664 298.073C23.408 298.606 22.9174 299.214 22.192 299.897L19.2 302.745H24.48Z" fill="black"/>
<path d="M21.136 356.857C22.1707 356.985 22.96 357.337 23.504 357.913C24.048 358.489 24.32 359.209 24.32 360.073C24.32 360.724 24.1547 361.316 23.824 361.849C23.4934 362.383 22.992 362.809 22.32 363.129C21.6587 363.439 20.848 363.593 19.888 363.593C19.088 363.593 18.3147 363.481 17.568 363.257C16.832 363.023 16.2027 362.703 15.68 362.297L16.576 360.681C16.9814 361.023 17.472 361.295 18.048 361.497C18.6347 361.689 19.2374 361.785 19.856 361.785C20.592 361.785 21.168 361.636 21.584 361.337C22.0107 361.028 22.224 360.612 22.224 360.089C22.224 359.567 22.0214 359.161 21.616 358.873C21.2214 358.575 20.6134 358.425 19.792 358.425H18.768V357.001L21.312 353.977H16.224V352.233H23.856V353.625L21.136 356.857Z" fill="black"/>
<path d="M25.5786 419.818H23.5946V422.362H21.5786V419.818H15.4346V418.378L20.9546 411.162H23.1786L17.9786 418.058H21.6426V415.802H23.5946V418.058H25.5786V419.818Z" fill="black"/>
<path d="M19.8564 473.426C21.4351 473.426 22.6031 473.736 23.3604 474.354C24.1177 474.962 24.4964 475.794 24.4964 476.85C24.4964 477.522 24.3311 478.13 24.0004 478.674C23.6697 479.218 23.1737 479.65 22.5124 479.97C21.8511 480.29 21.0351 480.45 20.0644 480.45C19.2644 480.45 18.4911 480.338 17.7444 480.114C16.9977 479.88 16.3684 479.56 15.8564 479.154L16.7364 477.538C17.1524 477.88 17.6484 478.152 18.2244 478.354C18.8111 478.546 19.4137 478.642 20.0324 478.642C20.7684 478.642 21.3444 478.493 21.7604 478.194C22.1871 477.885 22.4004 477.464 22.4004 476.93C22.4004 476.354 22.1711 475.922 21.7124 475.634C21.2644 475.336 20.4911 475.186 19.3924 475.186H16.6884L17.2644 469.09H23.8404V470.834H19.0244L18.7844 473.426H19.8564Z" fill="black"/>
<path d="M21.0967 532.275C21.8327 532.275 22.494 532.419 23.0807 532.707C23.6673 532.984 24.126 533.384 24.4567 533.907C24.7873 534.43 24.9527 535.032 24.9527 535.715C24.9527 536.44 24.7713 537.08 24.4087 537.635C24.046 538.179 23.5553 538.6 22.9367 538.899C22.318 539.198 21.6247 539.347 20.8567 539.347C19.3207 539.347 18.126 538.867 17.2727 537.907C16.43 536.947 16.0087 535.571 16.0087 533.779C16.0087 532.52 16.238 531.448 16.6967 530.563C17.1553 529.667 17.7953 528.99 18.6167 528.531C19.4487 528.062 20.4087 527.827 21.4967 527.827C22.0727 527.827 22.6113 527.891 23.1127 528.019C23.6247 528.136 24.0673 528.312 24.4407 528.547L23.6727 530.115C23.118 529.752 22.4087 529.571 21.5447 529.571C20.4673 529.571 19.6247 529.902 19.0167 530.563C18.4087 531.224 18.1047 532.179 18.1047 533.427V533.443C18.4353 533.059 18.8567 532.771 19.3687 532.579C19.8807 532.376 20.4567 532.275 21.0967 532.275ZM20.7447 537.715C21.3953 537.715 21.9233 537.544 22.3287 537.203C22.734 536.851 22.9367 536.387 22.9367 535.811C22.9367 535.224 22.734 534.76 22.3287 534.419C21.9233 534.078 21.3793 533.907 20.6967 533.907C20.0247 533.907 19.4753 534.088 19.0487 534.451C18.6327 534.814 18.4247 535.272 18.4247 535.827C18.4247 536.371 18.6273 536.824 19.0327 537.187C19.4487 537.539 20.0193 537.715 20.7447 537.715Z" fill="black"/>
<path d="M24.6051 586.947V588.339L20.2531 598.147H18.0291L22.2371 588.707H17.8371V590.611H15.9011V586.947H24.6051Z" fill="black"/>
<path d="M23.0695 650.156C23.6562 650.423 24.1042 650.785 24.4135 651.244C24.7335 651.692 24.8935 652.22 24.8935 652.828C24.8935 653.511 24.7015 654.108 24.3175 654.62C23.9442 655.132 23.4109 655.527 22.7175 655.804C22.0242 656.071 21.2189 656.204 20.3015 656.204C19.3842 656.204 18.5789 656.071 17.8855 655.804C17.2029 655.527 16.6749 655.132 16.3015 654.62C15.9282 654.108 15.7415 653.511 15.7415 652.828C15.7415 652.22 15.8962 651.692 16.2055 651.244C16.5149 650.785 16.9575 650.423 17.5335 650.156C17.0855 649.911 16.7389 649.591 16.4935 649.196C16.2589 648.791 16.1415 648.327 16.1415 647.804C16.1415 647.175 16.3122 646.625 16.6535 646.156C17.0055 645.687 17.4962 645.324 18.1255 645.068C18.7549 644.812 19.4802 644.684 20.3015 644.684C21.1335 644.684 21.8642 644.812 22.4935 645.068C23.1229 645.324 23.6135 645.687 23.9655 646.156C24.3175 646.625 24.4935 647.175 24.4935 647.804C24.4935 648.327 24.3709 648.785 24.1255 649.18C23.8802 649.575 23.5282 649.9 23.0695 650.156ZM20.3015 646.316C19.6509 646.316 19.1335 646.455 18.7495 646.732C18.3762 647.009 18.1895 647.399 18.1895 647.9C18.1895 648.38 18.3762 648.764 18.7495 649.052C19.1335 649.329 19.6509 649.468 20.3015 649.468C20.9629 649.468 21.4855 649.329 21.8695 649.052C22.2535 648.764 22.4455 648.38 22.4455 647.9C22.4455 647.399 22.2482 647.009 21.8535 646.732C21.4695 646.455 20.9522 646.316 20.3015 646.316ZM20.3015 654.572C21.0695 654.572 21.6775 654.412 22.1255 654.092C22.5735 653.772 22.7975 653.329 22.7975 652.764C22.7975 652.209 22.5735 651.772 22.1255 651.452C21.6775 651.132 21.0695 650.972 20.3015 650.972C19.5335 650.972 18.9309 651.132 18.4935 651.452C18.0562 651.772 17.8375 652.209 17.8375 652.764C17.8375 653.329 18.0562 653.772 18.4935 654.092C18.9309 654.412 19.5335 654.572 20.3015 654.572Z" fill="black"/>
<path d="M19.7847 705.644C21.3207 705.644 22.51 706.124 23.3527 707.084C24.206 708.044 24.6327 709.42 24.6327 711.212C24.6327 712.471 24.4033 713.548 23.9447 714.444C23.486 715.33 22.8407 716.007 22.0087 716.476C21.1873 716.935 20.2327 717.164 19.1447 717.164C18.5687 717.164 18.0247 717.106 17.5127 716.988C17.0113 716.86 16.574 716.679 16.2007 716.444L16.9687 714.876C17.5233 715.239 18.2327 715.42 19.0967 715.42C20.174 715.42 21.0167 715.09 21.6247 714.428C22.2327 713.767 22.5367 712.812 22.5367 711.564V711.548C22.206 711.932 21.7847 712.226 21.2727 712.428C20.7607 712.62 20.1847 712.716 19.5447 712.716C18.8087 712.716 18.1473 712.578 17.5607 712.3C16.974 712.012 16.5153 711.607 16.1847 711.084C15.854 710.562 15.6887 709.959 15.6887 709.276C15.6887 708.551 15.87 707.916 16.2327 707.372C16.5953 706.818 17.086 706.391 17.7047 706.092C18.3233 705.794 19.0167 705.644 19.7847 705.644ZM19.9447 711.084C20.6167 711.084 21.1607 710.903 21.5767 710.54C22.0033 710.178 22.2167 709.719 22.2167 709.164C22.2167 708.62 22.0087 708.172 21.5927 707.82C21.1873 707.458 20.622 707.276 19.8967 707.276C19.246 707.276 18.718 707.452 18.3127 707.804C17.9073 708.146 17.7047 708.604 17.7047 709.18C17.7047 709.767 17.9073 710.231 18.3127 710.572C18.718 710.914 19.262 711.084 19.9447 711.084Z" fill="black"/>
<g filter="url(#filter0_d)">
<rect x="236" y="92" width="76.2143" height="76.2143" fill="#E5E5E5"/>
<rect x="236.25" y="92.25" width="75.7143" height="75.7143" stroke="black" stroke-width="0.5"/>
</g>
<path d="M230.797 62.51C230.797 62.92 230.732 63.23 230.602 63.44C230.472 63.65 230.262 63.8 229.972 63.89C230.262 63.98 230.472 64.13 230.602 64.34C230.732 64.55 230.797 64.86 230.797 65.27V68.555C230.797 69.335 231.167 69.725 231.907 69.725H232.282V70.91H231.622C230.872 70.91 230.307 70.72 229.927 70.34C229.547 69.97 229.357 69.42 229.357 68.69V65.24C229.357 64.74 229.132 64.49 228.682 64.49H228.157V63.29H228.682C229.132 63.29 229.357 63.04 229.357 62.54V59.09C229.357 58.36 229.547 57.81 229.927 57.44C230.307 57.06 230.872 56.87 231.622 56.87H232.282V58.055H231.907C231.167 58.055 230.797 58.445 230.797 59.225V62.51ZM236.799 57.5V68H235.314V58.805H232.944V57.5H236.799ZM240.101 66.035C240.381 66.035 240.611 66.135 240.791 66.335C240.981 66.525 241.076 66.765 241.076 67.055C241.076 67.205 241.056 67.35 241.016 67.49C240.986 67.63 240.921 67.845 240.821 68.135L240.116 70.22H239.171L239.726 67.985C239.536 67.915 239.381 67.8 239.261 67.64C239.151 67.47 239.096 67.275 239.096 67.055C239.096 66.755 239.191 66.51 239.381 66.32C239.571 66.13 239.811 66.035 240.101 66.035ZM250.021 66.695V68H242.476V66.98L246.751 62.855C247.271 62.355 247.621 61.925 247.801 61.565C247.981 61.195 248.071 60.825 248.071 60.455C248.071 59.905 247.876 59.48 247.486 59.18C247.106 58.87 246.556 58.715 245.836 58.715C244.676 58.715 243.781 59.095 243.151 59.855L242.131 58.97C242.541 58.47 243.076 58.08 243.736 57.8C244.406 57.52 245.151 57.38 245.971 57.38C247.071 57.38 247.946 57.645 248.596 58.175C249.246 58.695 249.571 59.405 249.571 60.305C249.571 60.865 249.451 61.395 249.211 61.895C248.971 62.395 248.516 62.965 247.846 63.605L244.636 66.695H250.021ZM252.406 66.035C252.686 66.035 252.916 66.135 253.096 66.335C253.286 66.525 253.381 66.765 253.381 67.055C253.381 67.205 253.361 67.35 253.321 67.49C253.291 67.63 253.226 67.845 253.126 68.135L252.421 70.22H251.476L252.031 67.985C251.841 67.915 251.686 67.8 251.566 67.64C251.456 67.47 251.401 67.275 251.401 67.055C251.401 66.755 251.496 66.51 251.686 66.32C251.876 66.13 252.116 66.035 252.406 66.035ZM258.966 61.91C259.996 62.01 260.781 62.33 261.321 62.87C261.861 63.4 262.131 64.08 262.131 64.91C262.131 65.51 261.981 66.055 261.681 66.545C261.381 67.025 260.931 67.41 260.331 67.7C259.741 67.98 259.016 68.12 258.156 68.12C257.406 68.12 256.686 68.01 255.996 67.79C255.306 67.56 254.741 67.245 254.301 66.845L254.991 65.66C255.351 66 255.811 66.275 256.371 66.485C256.931 66.685 257.526 66.785 258.156 66.785C258.936 66.785 259.541 66.62 259.971 66.29C260.411 65.96 260.631 65.505 260.631 64.925C260.631 64.345 260.416 63.895 259.986 63.575C259.556 63.255 258.906 63.095 258.036 63.095H257.196V62.045L259.836 58.805H254.781V57.5H261.711V58.52L258.966 61.91ZM264.535 66.035C264.815 66.035 265.045 66.135 265.225 66.335C265.415 66.525 265.51 66.765 265.51 67.055C265.51 67.205 265.49 67.35 265.45 67.49C265.42 67.63 265.355 67.845 265.255 68.135L264.55 70.22H263.605L264.16 67.985C263.97 67.915 263.815 67.8 263.695 67.64C263.585 67.47 263.53 67.275 263.53 67.055C263.53 66.755 263.625 66.51 263.815 66.32C264.005 66.13 264.245 66.035 264.535 66.035ZM275.931 65.42H273.936V68H272.481V65.42H266.646V64.37L272.016 57.5H273.636L268.491 64.13H272.526V61.85H273.936V64.13H275.931V65.42ZM278.128 66.035C278.408 66.035 278.638 66.135 278.818 66.335C279.008 66.525 279.103 66.765 279.103 67.055C279.103 67.205 279.083 67.35 279.043 67.49C279.013 67.63 278.948 67.845 278.848 68.135L278.143 70.22H277.198L277.753 67.985C277.563 67.915 277.408 67.8 277.288 67.64C277.178 67.47 277.123 67.275 277.123 67.055C277.123 66.755 277.218 66.51 277.408 66.32C277.598 66.13 277.838 66.035 278.128 66.035ZM283.522 61.685C285.022 61.685 286.122 61.97 286.822 62.54C287.532 63.1 287.887 63.87 287.887 64.85C287.887 65.47 287.737 66.03 287.437 66.53C287.147 67.02 286.702 67.41 286.102 67.7C285.512 67.98 284.782 68.12 283.912 68.12C283.172 68.12 282.457 68.01 281.767 67.79C281.077 67.56 280.507 67.245 280.057 66.845L280.747 65.66C281.107 66 281.567 66.275 282.127 66.485C282.687 66.685 283.277 66.785 283.897 66.785C284.687 66.785 285.297 66.62 285.727 66.29C286.167 65.95 286.387 65.49 286.387 64.91C286.387 64.28 286.147 63.805 285.667 63.485C285.187 63.155 284.367 62.99 283.207 62.99H280.822L281.377 57.5H287.302V58.805H282.637L282.352 61.685H283.522ZM290.14 66.035C290.42 66.035 290.65 66.135 290.83 66.335C291.02 66.525 291.115 66.765 291.115 67.055C291.115 67.205 291.095 67.35 291.055 67.49C291.025 67.63 290.96 67.845 290.86 68.135L290.155 70.22H289.21L289.765 67.985C289.575 67.915 289.42 67.8 289.3 67.64C289.19 67.47 289.135 67.275 289.135 67.055C289.135 66.755 289.23 66.51 289.42 66.32C289.61 66.13 289.85 66.035 290.14 66.035ZM296.888 61.625C297.578 61.625 298.193 61.755 298.733 62.015C299.283 62.275 299.713 62.65 300.023 63.14C300.333 63.62 300.488 64.175 300.488 64.805C300.488 65.465 300.323 66.045 299.993 66.545C299.673 67.045 299.228 67.435 298.658 67.715C298.098 67.985 297.468 68.12 296.768 68.12C295.358 68.12 294.268 67.665 293.498 66.755C292.738 65.845 292.358 64.555 292.358 62.885C292.358 61.715 292.563 60.72 292.973 59.9C293.393 59.07 293.973 58.445 294.713 58.025C295.463 57.595 296.333 57.38 297.323 57.38C297.833 57.38 298.313 57.435 298.763 57.545C299.213 57.645 299.603 57.795 299.933 57.995L299.363 59.165C298.863 58.835 298.193 58.67 297.353 58.67C296.263 58.67 295.408 59.01 294.788 59.69C294.168 60.36 293.858 61.34 293.858 62.63C293.858 62.79 293.863 62.915 293.873 63.005C294.173 62.555 294.583 62.215 295.103 61.985C295.633 61.745 296.228 61.625 296.888 61.625ZM296.708 66.905C297.398 66.905 297.958 66.72 298.388 66.35C298.818 65.98 299.033 65.485 299.033 64.865C299.033 64.245 298.813 63.755 298.373 63.395C297.943 63.025 297.363 62.84 296.633 62.84C296.163 62.84 295.743 62.93 295.373 63.11C295.013 63.29 294.728 63.535 294.518 63.845C294.318 64.155 294.218 64.5 294.218 64.88C294.218 65.25 294.313 65.59 294.503 65.9C294.703 66.2 294.988 66.445 295.358 66.635C295.738 66.815 296.188 66.905 296.708 66.905ZM302.767 66.035C303.047 66.035 303.277 66.135 303.457 66.335C303.647 66.525 303.742 66.765 303.742 67.055C303.742 67.205 303.722 67.35 303.682 67.49C303.652 67.63 303.587 67.845 303.487 68.135L302.782 70.22H301.837L302.392 67.985C302.202 67.915 302.047 67.8 301.927 67.64C301.817 67.47 301.762 67.275 301.762 67.055C301.762 66.755 301.857 66.51 302.047 66.32C302.237 66.13 302.477 66.035 302.767 66.035ZM312.62 57.5V58.52L308.375 68H306.785L310.94 58.805H306.14V60.68H304.7V57.5H312.62ZM314.163 66.035C314.443 66.035 314.673 66.135 314.853 66.335C315.043 66.525 315.138 66.765 315.138 67.055C315.138 67.205 315.118 67.35 315.078 67.49C315.048 67.63 314.983 67.845 314.883 68.135L314.178 70.22H313.233L313.788 67.985C313.598 67.915 313.443 67.8 313.323 67.64C313.213 67.47 313.158 67.275 313.158 67.055C313.158 66.755 313.253 66.51 313.443 66.32C313.633 66.13 313.873 66.035 314.163 66.035ZM323.123 62.495C323.723 62.725 324.183 63.055 324.503 63.485C324.823 63.915 324.983 64.43 324.983 65.03C324.983 65.66 324.813 66.21 324.473 66.68C324.133 67.14 323.648 67.495 323.018 67.745C322.388 67.995 321.648 68.12 320.798 68.12C319.958 68.12 319.223 67.995 318.593 67.745C317.973 67.495 317.493 67.14 317.153 66.68C316.813 66.21 316.643 65.66 316.643 65.03C316.643 64.43 316.798 63.915 317.108 63.485C317.428 63.055 317.888 62.725 318.488 62.495C318.008 62.265 317.643 61.96 317.393 61.58C317.143 61.2 317.018 60.75 317.018 60.23C317.018 59.65 317.173 59.145 317.483 58.715C317.803 58.285 318.248 57.955 318.818 57.725C319.388 57.495 320.048 57.38 320.798 57.38C321.558 57.38 322.223 57.495 322.793 57.725C323.373 57.955 323.818 58.285 324.128 58.715C324.448 59.145 324.608 59.65 324.608 60.23C324.608 60.74 324.478 61.19 324.218 61.58C323.968 61.96 323.603 62.265 323.123 62.495ZM320.798 58.595C320.088 58.595 319.528 58.75 319.118 59.06C318.708 59.36 318.503 59.77 318.503 60.29C318.503 60.81 318.703 61.22 319.103 61.52C319.513 61.82 320.078 61.97 320.798 61.97C321.528 61.97 322.098 61.82 322.508 61.52C322.928 61.22 323.138 60.81 323.138 60.29C323.138 59.77 322.923 59.36 322.493 59.06C322.073 58.75 321.508 58.595 320.798 58.595ZM320.798 66.905C321.628 66.905 322.283 66.735 322.763 66.395C323.243 66.045 323.483 65.575 323.483 64.985C323.483 64.405 323.243 63.95 322.763 63.62C322.283 63.28 321.628 63.11 320.798 63.11C319.968 63.11 319.318 63.28 318.848 63.62C318.378 63.95 318.143 64.405 318.143 64.985C318.143 65.575 318.378 66.045 318.848 66.395C319.318 66.735 319.968 66.905 320.798 66.905ZM327.508 66.035C327.788 66.035 328.018 66.135 328.198 66.335C328.388 66.525 328.483 66.765 328.483 67.055C328.483 67.205 328.463 67.35 328.423 67.49C328.393 67.63 328.328 67.845 328.228 68.135L327.523 70.22H326.578L327.133 67.985C326.943 67.915 326.788 67.8 326.668 67.64C326.558 67.47 326.503 67.275 326.503 67.055C326.503 66.755 326.598 66.51 326.788 66.32C326.978 66.13 327.218 66.035 327.508 66.035ZM333.307 57.38C334.717 57.38 335.802 57.835 336.562 58.745C337.332 59.655 337.717 60.945 337.717 62.615C337.717 63.785 337.507 64.785 337.087 65.615C336.677 66.435 336.097 67.06 335.347 67.49C334.607 67.91 333.742 68.12 332.752 68.12C332.242 68.12 331.762 68.07 331.312 67.97C330.862 67.86 330.472 67.705 330.142 67.505L330.712 66.335C331.222 66.665 331.897 66.83 332.737 66.83C333.827 66.83 334.677 66.495 335.287 65.825C335.907 65.145 336.217 64.16 336.217 62.87V62.495C335.917 62.945 335.502 63.29 334.972 63.53C334.442 63.76 333.847 63.875 333.187 63.875C332.497 63.875 331.877 63.745 331.327 63.485C330.787 63.225 330.362 62.855 330.052 62.375C329.752 61.885 329.602 61.325 329.602 60.695C329.602 60.035 329.762 59.455 330.082 58.955C330.412 58.455 330.857 58.07 331.417 57.8C331.977 57.52 332.607 57.38 333.307 57.38ZM333.442 62.66C333.912 62.66 334.332 62.57 334.702 62.39C335.072 62.21 335.357 61.965 335.557 61.655C335.767 61.345 335.872 61 335.872 60.62C335.872 60.25 335.772 59.915 335.572 59.615C335.382 59.305 335.097 59.06 334.717 58.88C334.347 58.69 333.897 58.595 333.367 58.595C332.677 58.595 332.117 58.78 331.687 59.15C331.267 59.52 331.057 60.015 331.057 60.635C331.057 61.255 331.272 61.75 331.702 62.12C332.132 62.48 332.712 62.66 333.442 62.66ZM342.834 63.29V64.49H342.324C341.884 64.49 341.664 64.74 341.664 65.24V68.69C341.664 69.42 341.469 69.97 341.079 70.34C340.699 70.72 340.134 70.91 339.384 70.91H338.724V69.725H339.084C339.844 69.725 340.224 69.335 340.224 68.555V65.27C340.224 64.85 340.284 64.54 340.404 64.34C340.534 64.13 340.744 63.98 341.034 63.89C340.744 63.8 340.534 63.655 340.404 63.455C340.284 63.245 340.224 62.93 340.224 62.51V59.225C340.224 58.445 339.844 58.055 339.084 58.055H338.724V56.87H339.384C340.134 56.87 340.699 57.06 341.079 57.44C341.469 57.81 341.664 58.36 341.664 59.09V62.54C341.664 63.04 341.884 63.29 342.324 63.29H342.834Z" fill="black"/>
<path d="M184.198 29.9H188.033C188.995 29.9 189.849 30.0907 190.594 30.472C191.339 30.8533 191.916 31.3907 192.323 32.084C192.739 32.7687 192.947 33.5573 192.947 34.45C192.947 35.3427 192.739 36.1357 192.323 36.829C191.916 37.5137 191.339 38.0467 190.594 38.428C189.849 38.8093 188.995 39 188.033 39H184.198V29.9ZM187.955 37.869C188.692 37.869 189.337 37.726 189.892 37.44C190.455 37.154 190.889 36.7553 191.192 36.244C191.495 35.724 191.647 35.126 191.647 34.45C191.647 33.774 191.495 33.1803 191.192 32.669C190.889 32.149 190.455 31.746 189.892 31.46C189.337 31.174 188.692 31.031 187.955 31.031H185.498V37.869H187.955ZM197.707 39.078C197.023 39.078 196.407 38.9263 195.861 38.623C195.315 38.3197 194.886 37.9037 194.574 37.375C194.271 36.8377 194.119 36.231 194.119 35.555C194.119 34.879 194.271 34.2767 194.574 33.748C194.886 33.2107 195.315 32.7947 195.861 32.5C196.407 32.1967 197.023 32.045 197.707 32.045C198.392 32.045 199.003 32.1967 199.54 32.5C200.086 32.7947 200.511 33.2107 200.814 33.748C201.126 34.2767 201.282 34.879 201.282 35.555C201.282 36.231 201.126 36.8377 200.814 37.375C200.511 37.9037 200.086 38.3197 199.54 38.623C199.003 38.9263 198.392 39.078 197.707 39.078ZM197.707 37.986C198.149 37.986 198.544 37.8863 198.89 37.687C199.246 37.479 199.523 37.193 199.722 36.829C199.922 36.4563 200.021 36.0317 200.021 35.555C200.021 35.0783 199.922 34.658 199.722 34.294C199.523 33.9213 199.246 33.6353 198.89 33.436C198.544 33.2367 198.149 33.137 197.707 33.137C197.265 33.137 196.867 33.2367 196.511 33.436C196.165 33.6353 195.887 33.9213 195.679 34.294C195.48 34.658 195.38 35.0783 195.38 35.555C195.38 36.0317 195.48 36.4563 195.679 36.829C195.887 37.193 196.165 37.479 196.511 37.687C196.867 37.8863 197.265 37.986 197.707 37.986ZM211.627 32.045C212.494 32.045 213.179 32.2963 213.681 32.799C214.193 33.3017 214.448 34.047 214.448 35.035V39H213.2V35.178C213.2 34.5107 213.044 34.008 212.732 33.67C212.429 33.332 211.991 33.163 211.419 33.163C210.787 33.163 210.284 33.3623 209.911 33.761C209.539 34.151 209.352 34.7143 209.352 35.451V39H208.104V35.178C208.104 34.5107 207.948 34.008 207.636 33.67C207.333 33.332 206.895 33.163 206.323 33.163C205.691 33.163 205.188 33.3623 204.815 33.761C204.443 34.151 204.256 34.7143 204.256 35.451V39H203.008V32.11H204.204V33.137C204.456 32.7817 204.785 32.513 205.192 32.331C205.6 32.1403 206.063 32.045 206.583 32.045C207.121 32.045 207.597 32.1533 208.013 32.37C208.429 32.5867 208.75 32.903 208.975 33.319C209.235 32.9203 209.595 32.6083 210.054 32.383C210.522 32.1577 211.047 32.045 211.627 32.045ZM219.254 32.045C220.207 32.045 220.935 32.279 221.438 32.747C221.949 33.215 222.205 33.9127 222.205 34.84V39H221.022V38.09C220.814 38.4107 220.515 38.6577 220.125 38.831C219.743 38.9957 219.288 39.078 218.76 39.078C217.988 39.078 217.369 38.8917 216.901 38.519C216.441 38.1463 216.212 37.6567 216.212 37.05C216.212 36.4433 216.433 35.958 216.875 35.594C217.317 35.2213 218.019 35.035 218.981 35.035H220.957V34.788C220.957 34.2507 220.801 33.839 220.489 33.553C220.177 33.267 219.717 33.124 219.111 33.124C218.703 33.124 218.305 33.1933 217.915 33.332C217.525 33.462 217.195 33.6397 216.927 33.865L216.407 32.929C216.762 32.643 217.187 32.4263 217.681 32.279C218.175 32.123 218.699 32.045 219.254 32.045ZM218.968 38.116C219.444 38.116 219.856 38.012 220.203 37.804C220.549 37.5873 220.801 37.284 220.957 36.894V35.932H219.033C217.975 35.932 217.447 36.2873 217.447 36.998C217.447 37.3447 217.581 37.6177 217.85 37.817C218.118 38.0163 218.491 38.116 218.968 38.116ZM224.514 32.11H225.762V39H224.514V32.11ZM225.138 30.784C224.895 30.784 224.692 30.706 224.527 30.55C224.371 30.394 224.293 30.2033 224.293 29.978C224.293 29.7527 224.371 29.562 224.527 29.406C224.692 29.2413 224.895 29.159 225.138 29.159C225.381 29.159 225.58 29.237 225.736 29.393C225.901 29.5403 225.983 29.7267 225.983 29.952C225.983 30.186 225.901 30.3853 225.736 30.55C225.58 30.706 225.381 30.784 225.138 30.784ZM231.824 32.045C232.699 32.045 233.393 32.3007 233.904 32.812C234.424 33.3147 234.684 34.0557 234.684 35.035V39H233.436V35.178C233.436 34.5107 233.276 34.008 232.955 33.67C232.634 33.332 232.175 33.163 231.577 33.163C230.901 33.163 230.368 33.3623 229.978 33.761C229.588 34.151 229.393 34.7143 229.393 35.451V39H228.145V32.11H229.341V33.15C229.592 32.7947 229.93 32.5217 230.355 32.331C230.788 32.1403 231.278 32.045 231.824 32.045ZM241.967 31.031V34.203H246.53V35.321H241.967V39H240.667V29.9H247.089V31.031H241.967ZM251.472 39.078C250.787 39.078 250.172 38.9263 249.626 38.623C249.08 38.3197 248.651 37.9037 248.339 37.375C248.036 36.8377 247.884 36.231 247.884 35.555C247.884 34.879 248.036 34.2767 248.339 33.748C248.651 33.2107 249.08 32.7947 249.626 32.5C250.172 32.1967 250.787 32.045 251.472 32.045C252.157 32.045 252.768 32.1967 253.305 32.5C253.851 32.7947 254.276 33.2107 254.579 33.748C254.891 34.2767 255.047 34.879 255.047 35.555C255.047 36.231 254.891 36.8377 254.579 37.375C254.276 37.9037 253.851 38.3197 253.305 38.623C252.768 38.9263 252.157 39.078 251.472 39.078ZM251.472 37.986C251.914 37.986 252.308 37.8863 252.655 37.687C253.01 37.479 253.288 37.193 253.487 36.829C253.686 36.4563 253.786 36.0317 253.786 35.555C253.786 35.0783 253.686 34.658 253.487 34.294C253.288 33.9213 253.01 33.6353 252.655 33.436C252.308 33.2367 251.914 33.137 251.472 33.137C251.03 33.137 250.631 33.2367 250.276 33.436C249.929 33.6353 249.652 33.9213 249.444 34.294C249.245 34.658 249.145 35.0783 249.145 35.555C249.145 36.0317 249.245 36.4563 249.444 36.829C249.652 37.193 249.929 37.479 250.276 37.687C250.631 37.8863 251.03 37.986 251.472 37.986ZM257.969 33.267C258.186 32.8683 258.506 32.565 258.931 32.357C259.356 32.149 259.871 32.045 260.478 32.045V33.254C260.409 33.2453 260.313 33.241 260.192 33.241C259.516 33.241 258.983 33.4447 258.593 33.852C258.212 34.2507 258.021 34.8227 258.021 35.568V39H256.773V32.11H257.969V33.267ZM272.382 37.869V39H265.778V29.9H272.2V31.031H267.078V33.826H271.641V34.931H267.078V37.869H272.382ZM280.288 32.11L277.272 39H275.998L272.982 32.11H274.282L276.648 37.635L279.066 32.11H280.288ZM287.489 35.594C287.489 35.6893 287.48 35.815 287.463 35.971H281.873C281.951 36.5777 282.215 37.0673 282.666 37.44C283.125 37.804 283.693 37.986 284.369 37.986C285.192 37.986 285.855 37.7087 286.358 37.154L287.047 37.96C286.735 38.324 286.345 38.6013 285.877 38.792C285.418 38.9827 284.902 39.078 284.33 39.078C283.602 39.078 282.956 38.9307 282.393 38.636C281.83 38.3327 281.392 37.9123 281.08 37.375C280.777 36.8377 280.625 36.231 280.625 35.555C280.625 34.8877 280.772 34.2853 281.067 33.748C281.37 33.2107 281.782 32.7947 282.302 32.5C282.831 32.1967 283.424 32.045 284.083 32.045C284.742 32.045 285.327 32.1967 285.838 32.5C286.358 32.7947 286.761 33.2107 287.047 33.748C287.342 34.2853 287.489 34.9007 287.489 35.594ZM284.083 33.098C283.485 33.098 282.982 33.28 282.575 33.644C282.176 34.008 281.942 34.4847 281.873 35.074H286.293C286.224 34.4933 285.985 34.021 285.578 33.657C285.179 33.2843 284.681 33.098 284.083 33.098ZM290.418 33.267C290.635 32.8683 290.955 32.565 291.38 32.357C291.805 32.149 292.32 32.045 292.927 32.045V33.254C292.858 33.2453 292.762 33.241 292.641 33.241C291.965 33.241 291.432 33.4447 291.042 33.852C290.661 34.2507 290.47 34.8227 290.47 35.568V39H289.222V32.11H290.418V33.267ZM300.842 32.11L297.501 39.689C297.206 40.391 296.859 40.885 296.461 41.171C296.071 41.457 295.598 41.6 295.044 41.6C294.706 41.6 294.376 41.5437 294.056 41.431C293.744 41.327 293.484 41.171 293.276 40.963L293.809 40.027C294.164 40.365 294.576 40.534 295.044 40.534C295.347 40.534 295.598 40.4517 295.798 40.287C296.006 40.131 296.192 39.858 296.357 39.468L296.578 38.987L293.536 32.11H294.836L297.241 37.622L299.62 32.11H300.842ZM307.473 39.078C306.91 39.078 306.368 39.0043 305.848 38.857C305.328 38.701 304.921 38.506 304.626 38.272L305.146 37.284C305.45 37.5007 305.818 37.674 306.251 37.804C306.685 37.934 307.122 37.999 307.564 37.999C308.656 37.999 309.202 37.687 309.202 37.063C309.202 36.855 309.129 36.6903 308.981 36.569C308.834 36.4477 308.648 36.361 308.422 36.309C308.206 36.2483 307.894 36.1833 307.486 36.114C306.932 36.0273 306.477 35.9277 306.121 35.815C305.775 35.7023 305.476 35.5117 305.224 35.243C304.973 34.9743 304.847 34.5973 304.847 34.112C304.847 33.488 305.107 32.9897 305.627 32.617C306.147 32.2357 306.845 32.045 307.72 32.045C308.18 32.045 308.639 32.1013 309.098 32.214C309.558 32.3267 309.935 32.4783 310.229 32.669L309.696 33.657C309.133 33.293 308.47 33.111 307.707 33.111C307.179 33.111 306.776 33.1977 306.498 33.371C306.221 33.5443 306.082 33.774 306.082 34.06C306.082 34.2853 306.16 34.463 306.316 34.593C306.472 34.723 306.663 34.8183 306.888 34.879C307.122 34.9397 307.447 35.009 307.863 35.087C308.418 35.1823 308.864 35.2863 309.202 35.399C309.549 35.503 309.844 35.685 310.086 35.945C310.329 36.205 310.45 36.569 310.45 37.037C310.45 37.661 310.182 38.1593 309.644 38.532C309.116 38.896 308.392 39.078 307.473 39.078ZM320.629 32.045C321.496 32.045 322.18 32.2963 322.683 32.799C323.194 33.3017 323.45 34.047 323.45 35.035V39H322.202V35.178C322.202 34.5107 322.046 34.008 321.734 33.67C321.431 33.332 320.993 33.163 320.421 33.163C319.788 33.163 319.286 33.3623 318.913 33.761C318.54 34.151 318.354 34.7143 318.354 35.451V39H317.106V35.178C317.106 34.5107 316.95 34.008 316.638 33.67C316.335 33.332 315.897 33.163 315.325 33.163C314.692 33.163 314.19 33.3623 313.817 33.761C313.444 34.151 313.258 34.7143 313.258 35.451V39H312.01V32.11H313.206V33.137C313.457 32.7817 313.787 32.513 314.194 32.331C314.601 32.1403 315.065 32.045 315.585 32.045C316.122 32.045 316.599 32.1533 317.015 32.37C317.431 32.5867 317.752 32.903 317.977 33.319C318.237 32.9203 318.597 32.6083 319.056 32.383C319.524 32.1577 320.048 32.045 320.629 32.045ZM328.255 32.045C329.209 32.045 329.937 32.279 330.439 32.747C330.951 33.215 331.206 33.9127 331.206 34.84V39H330.023V38.09C329.815 38.4107 329.516 38.6577 329.126 38.831C328.745 38.9957 328.29 39.078 327.761 39.078C326.99 39.078 326.37 38.8917 325.902 38.519C325.443 38.1463 325.213 37.6567 325.213 37.05C325.213 36.4433 325.434 35.958 325.876 35.594C326.318 35.2213 327.02 35.035 327.982 35.035H329.958V34.788C329.958 34.2507 329.802 33.839 329.49 33.553C329.178 33.267 328.719 33.124 328.112 33.124C327.705 33.124 327.306 33.1933 326.916 33.332C326.526 33.462 326.197 33.6397 325.928 33.865L325.408 32.929C325.764 32.643 326.188 32.4263 326.682 32.279C327.176 32.123 327.701 32.045 328.255 32.045ZM327.969 38.116C328.446 38.116 328.858 38.012 329.204 37.804C329.551 37.5873 329.802 37.284 329.958 36.894V35.932H328.034C326.977 35.932 326.448 36.2873 326.448 36.998C326.448 37.3447 326.583 37.6177 326.851 37.817C327.12 38.0163 327.493 38.116 327.969 38.116ZM333.516 29.354H334.764V39H333.516V29.354ZM337.147 29.354H338.395V39H337.147V29.354ZM346.245 39.078C345.682 39.078 345.14 39.0043 344.62 38.857C344.1 38.701 343.693 38.506 343.398 38.272L343.918 37.284C344.221 37.5007 344.59 37.674 345.023 37.804C345.456 37.934 345.894 37.999 346.336 37.999C347.428 37.999 347.974 37.687 347.974 37.063C347.974 36.855 347.9 36.6903 347.753 36.569C347.606 36.4477 347.419 36.361 347.194 36.309C346.977 36.2483 346.665 36.1833 346.258 36.114C345.703 36.0273 345.248 35.9277 344.893 35.815C344.546 35.7023 344.247 35.5117 343.996 35.243C343.745 34.9743 343.619 34.5973 343.619 34.112C343.619 33.488 343.879 32.9897 344.399 32.617C344.919 32.2357 345.617 32.045 346.492 32.045C346.951 32.045 347.411 32.1013 347.87 32.214C348.329 32.3267 348.706 32.4783 349.001 32.669L348.468 33.657C347.905 33.293 347.242 33.111 346.479 33.111C345.95 33.111 345.547 33.1977 345.27 33.371C344.993 33.5443 344.854 33.774 344.854 34.06C344.854 34.2853 344.932 34.463 345.088 34.593C345.244 34.723 345.435 34.8183 345.66 34.879C345.894 34.9397 346.219 35.009 346.635 35.087C347.19 35.1823 347.636 35.2863 347.974 35.399C348.321 35.503 348.615 35.685 348.858 35.945C349.101 36.205 349.222 36.569 349.222 37.037C349.222 37.661 348.953 38.1593 348.416 38.532C347.887 38.896 347.164 39.078 346.245 39.078ZM357.282 32.11V41.522H356.034V37.96C355.748 38.324 355.397 38.6013 354.981 38.792C354.573 38.9827 354.123 39.078 353.629 39.078C352.961 39.078 352.363 38.9307 351.835 38.636C351.306 38.3413 350.89 37.9297 350.587 37.401C350.292 36.8637 350.145 36.2483 350.145 35.555C350.145 34.8617 350.292 34.2507 350.587 33.722C350.89 33.1933 351.306 32.7817 351.835 32.487C352.363 32.1923 352.961 32.045 353.629 32.045C354.14 32.045 354.608 32.1447 355.033 32.344C355.457 32.5347 355.808 32.8207 356.086 33.202V32.11H357.282ZM353.733 37.986C354.166 37.986 354.56 37.8863 354.916 37.687C355.271 37.479 355.548 37.193 355.748 36.829C355.947 36.4563 356.047 36.0317 356.047 35.555C356.047 35.0783 355.943 34.658 355.735 34.294C355.535 33.93 355.258 33.6483 354.903 33.449C354.556 33.241 354.166 33.137 353.733 33.137C353.291 33.137 352.892 33.2367 352.537 33.436C352.19 33.6353 351.913 33.9213 351.705 34.294C351.505 34.658 351.406 35.0783 351.406 35.555C351.406 36.0317 351.505 36.4563 351.705 36.829C351.913 37.193 352.19 37.479 352.537 37.687C352.892 37.8863 353.291 37.986 353.733 37.986ZM366.065 32.11V39H364.882V37.96C364.631 38.3153 364.297 38.5927 363.881 38.792C363.474 38.9827 363.027 39.078 362.542 39.078C361.623 39.078 360.9 38.8267 360.371 38.324C359.842 37.8127 359.578 37.063 359.578 36.075V32.11H360.826V35.932C360.826 36.5993 360.986 37.1063 361.307 37.453C361.628 37.791 362.087 37.96 362.685 37.96C363.344 37.96 363.864 37.7607 364.245 37.362C364.626 36.9633 364.817 36.4 364.817 35.672V32.11H366.065ZM370.95 32.045C371.903 32.045 372.631 32.279 373.134 32.747C373.645 33.215 373.901 33.9127 373.901 34.84V39H372.718V38.09C372.51 38.4107 372.211 38.6577 371.821 38.831C371.439 38.9957 370.984 39.078 370.456 39.078C369.684 39.078 369.065 38.8917 368.597 38.519C368.137 38.1463 367.908 37.6567 367.908 37.05C367.908 36.4433 368.129 35.958 368.571 35.594C369.013 35.2213 369.715 35.035 370.677 35.035H372.653V34.788C372.653 34.2507 372.497 33.839 372.185 33.553C371.873 33.267 371.413 33.124 370.807 33.124C370.399 33.124 370.001 33.1933 369.611 33.332C369.221 33.462 368.891 33.6397 368.623 33.865L368.103 32.929C368.458 32.643 368.883 32.4263 369.377 32.279C369.871 32.123 370.395 32.045 370.95 32.045ZM370.664 38.116C371.14 38.116 371.552 38.012 371.899 37.804C372.245 37.5873 372.497 37.284 372.653 36.894V35.932H370.729C369.671 35.932 369.143 36.2873 369.143 36.998C369.143 37.3447 369.277 37.6177 369.546 37.817C369.814 38.0163 370.187 38.116 370.664 38.116ZM377.406 33.267C377.623 32.8683 377.944 32.565 378.368 32.357C378.793 32.149 379.309 32.045 379.915 32.045V33.254C379.846 33.2453 379.751 33.241 379.629 33.241C378.953 33.241 378.42 33.4447 378.03 33.852C377.649 34.2507 377.458 34.8227 377.458 35.568V39H376.21V32.11H377.406V33.267ZM387.617 35.594C387.617 35.6893 387.608 35.815 387.591 35.971H382.001C382.079 36.5777 382.343 37.0673 382.794 37.44C383.253 37.804 383.821 37.986 384.497 37.986C385.32 37.986 385.983 37.7087 386.486 37.154L387.175 37.96C386.863 38.324 386.473 38.6013 386.005 38.792C385.546 38.9827 385.03 39.078 384.458 39.078C383.73 39.078 383.084 38.9307 382.521 38.636C381.958 38.3327 381.52 37.9123 381.208 37.375C380.905 36.8377 380.753 36.231 380.753 35.555C380.753 34.8877 380.9 34.2853 381.195 33.748C381.498 33.2107 381.91 32.7947 382.43 32.5C382.959 32.1967 383.552 32.045 384.211 32.045C384.87 32.045 385.455 32.1967 385.966 32.5C386.486 32.7947 386.889 33.2107 387.175 33.748C387.47 34.2853 387.617 34.9007 387.617 35.594ZM384.211 33.098C383.613 33.098 383.11 33.28 382.703 33.644C382.304 34.008 382.07 34.4847 382.001 35.074H386.421C386.352 34.4933 386.113 34.021 385.706 33.657C385.307 33.2843 384.809 33.098 384.211 33.098Z" fill="black"/>
<path d="M236.206 92.6927L159 210.422" stroke="black"/>
<path d="M236.18 167.522L159 267.5" stroke="black"/>
<path d="M312.362 167.559L218.5 267" stroke="black"/>
<defs>
<filter id="filter0_d" x="222" y="86" width="96.2143" height="96.2143" filterUnits="userSpaceOnUse" color-interpolation-filters="sRGB">
<feFlood flood-opacity="0" result="BackgroundImageFix"/>
<feColorMatrix in="SourceAlpha" type="matrix" values="0 0 0 0 0 0 0 0 0 0 0 0 0 0 0 0 0 0 127 0"/>
<feOffset dx="-4" dy="4"/>
<feGaussianBlur stdDeviation="5"/>
<feColorMatrix type="matrix" values="0 0 0 0 0 0 0 0 0 0 0 0 0 0 0 0 0 0 0.25 0"/>
<feBlend mode="normal" in2="BackgroundImageFix" result="effect1_dropShadow"/>
<feBlend mode="normal" in="SourceGraphic" in2="effect1_dropShadow" result="shape"/>
</filter>
</defs>
</svg>
