<svg width="623" height="641" viewBox="0 0 623 641" fill="none" xmlns="http://www.w3.org/2000/svg">
<g filter="url(#filter0_d)">
<line x1="92.6799" y1="57.3841" x2="50.6799" y2="22.3841" stroke="black"/>
</g>
<g filter="url(#filter1_d)">
<line x1="328.684" y1="57.3878" x2="285.684" y2="22.3878" stroke="black"/>
</g>
<g filter="url(#filter2_d)">
<rect x="238" width="97" height="23" fill="white"/>
<rect x="238.5" y="0.5" width="96" height="22" stroke="black"/>
</g>
<g filter="url(#filter3_d)">
<rect x="4" width="97" height="23" fill="white"/>
<rect x="4.5" y="0.5" width="96" height="22" stroke="black"/>
</g>
<path d="M245.984 17.13C245.282 17.13 244.602 17.0303 243.943 16.831C243.293 16.6317 242.777 16.3673 242.396 16.038L242.981 14.725C243.354 15.0197 243.809 15.2623 244.346 15.453C244.892 15.635 245.438 15.726 245.984 15.726C246.66 15.726 247.163 15.6177 247.492 15.401C247.83 15.1843 247.999 14.8983 247.999 14.543C247.999 14.283 247.904 14.0707 247.713 13.906C247.531 13.7327 247.297 13.5983 247.011 13.503C246.725 13.4077 246.335 13.2993 245.841 13.178C245.148 13.0133 244.584 12.8487 244.151 12.684C243.726 12.5193 243.358 12.2637 243.046 11.917C242.743 11.5617 242.591 11.085 242.591 10.487C242.591 9.98433 242.725 9.52933 242.994 9.122C243.271 8.706 243.683 8.37667 244.229 8.134C244.784 7.89133 245.46 7.77 246.257 7.77C246.812 7.77 247.358 7.83933 247.895 7.978C248.432 8.11667 248.896 8.316 249.286 8.576L248.753 9.889C248.354 9.655 247.938 9.47733 247.505 9.356C247.072 9.23467 246.651 9.174 246.244 9.174C245.577 9.174 245.078 9.28667 244.749 9.512C244.428 9.73733 244.268 10.0363 244.268 10.409C244.268 10.669 244.359 10.8813 244.541 11.046C244.732 11.2107 244.97 11.3407 245.256 11.436C245.542 11.5313 245.932 11.6397 246.426 11.761C247.102 11.917 247.657 12.0817 248.09 12.255C248.523 12.4197 248.892 12.6753 249.195 13.022C249.507 13.3687 249.663 13.8367 249.663 14.426C249.663 14.9287 249.524 15.3837 249.247 15.791C248.978 16.1983 248.567 16.5233 248.012 16.766C247.457 17.0087 246.781 17.13 245.984 17.13ZM259.945 9.98C260.82 9.98 261.513 10.2357 262.025 10.747C262.536 11.2497 262.792 12.008 262.792 13.022V17H261.167V13.23C261.167 12.6233 261.032 12.1683 260.764 11.865C260.495 11.553 260.109 11.397 259.607 11.397C259.061 11.397 258.623 11.579 258.294 11.943C257.964 12.2983 257.8 12.8097 257.8 13.477V17H256.175V13.23C256.175 12.6233 256.04 12.1683 255.772 11.865C255.503 11.553 255.117 11.397 254.615 11.397C254.06 11.397 253.618 11.5747 253.289 11.93C252.968 12.2853 252.808 12.801 252.808 13.477V17H251.183V10.058H252.73V10.942C252.99 10.63 253.315 10.3917 253.705 10.227C254.095 10.0623 254.528 9.98 255.005 9.98C255.525 9.98 255.984 10.0797 256.383 10.279C256.79 10.4697 257.111 10.7557 257.345 11.137C257.631 10.773 257.999 10.4913 258.45 10.292C258.9 10.084 259.399 9.98 259.945 9.98ZM267.52 9.98C268.543 9.98 269.323 10.227 269.86 10.721C270.406 11.2063 270.679 11.943 270.679 12.931V17H269.145V16.155C268.946 16.4583 268.66 16.6923 268.287 16.857C267.923 17.013 267.481 17.091 266.961 17.091C266.441 17.091 265.986 17.0043 265.596 16.831C265.206 16.649 264.903 16.402 264.686 16.09C264.478 15.7693 264.374 15.4097 264.374 15.011C264.374 14.387 264.604 13.8887 265.063 13.516C265.531 13.1347 266.264 12.944 267.26 12.944H269.054V12.84C269.054 12.3547 268.907 11.982 268.612 11.722C268.326 11.462 267.897 11.332 267.325 11.332C266.935 11.332 266.55 11.3927 266.168 11.514C265.796 11.6353 265.479 11.8043 265.219 12.021L264.582 10.838C264.946 10.5607 265.384 10.3483 265.895 10.201C266.407 10.0537 266.948 9.98 267.52 9.98ZM267.299 15.908C267.707 15.908 268.066 15.817 268.378 15.635C268.699 15.4443 268.924 15.1757 269.054 14.829V14.023H267.377C266.441 14.023 265.973 14.3307 265.973 14.946C265.973 15.2407 266.09 15.4747 266.324 15.648C266.558 15.8213 266.883 15.908 267.299 15.908ZM272.765 7.354H274.39V17H272.765V7.354ZM276.523 7.354H278.148V17H276.523V7.354ZM286.85 17.13C286.148 17.13 285.468 17.0303 284.809 16.831C284.159 16.6317 283.643 16.3673 283.262 16.038L283.847 14.725C284.22 15.0197 284.675 15.2623 285.212 15.453C285.758 15.635 286.304 15.726 286.85 15.726C287.526 15.726 288.029 15.6177 288.358 15.401C288.696 15.1843 288.865 14.8983 288.865 14.543C288.865 14.283 288.77 14.0707 288.579 13.906C288.397 13.7327 288.163 13.5983 287.877 13.503C287.591 13.4077 287.201 13.2993 286.707 13.178C286.014 13.0133 285.45 12.8487 285.017 12.684C284.592 12.5193 284.224 12.2637 283.912 11.917C283.609 11.5617 283.457 11.085 283.457 10.487C283.457 9.98433 283.591 9.52933 283.86 9.122C284.137 8.706 284.549 8.37667 285.095 8.134C285.65 7.89133 286.326 7.77 287.123 7.77C287.678 7.77 288.224 7.83933 288.761 7.978C289.298 8.11667 289.762 8.316 290.152 8.576L289.619 9.889C289.22 9.655 288.804 9.47733 288.371 9.356C287.938 9.23467 287.517 9.174 287.11 9.174C286.443 9.174 285.944 9.28667 285.615 9.512C285.294 9.73733 285.134 10.0363 285.134 10.409C285.134 10.669 285.225 10.8813 285.407 11.046C285.598 11.2107 285.836 11.3407 286.122 11.436C286.408 11.5313 286.798 11.6397 287.292 11.761C287.968 11.917 288.523 12.0817 288.956 12.255C289.389 12.4197 289.758 12.6753 290.061 13.022C290.373 13.3687 290.529 13.8367 290.529 14.426C290.529 14.9287 290.39 15.3837 290.113 15.791C289.844 16.1983 289.433 16.5233 288.878 16.766C288.323 17.0087 287.647 17.13 286.85 17.13ZM298.835 10.058V19.522H297.21V16.155C296.664 16.779 295.923 17.091 294.987 17.091C294.311 17.091 293.704 16.9437 293.167 16.649C292.638 16.3543 292.222 15.9383 291.919 15.401C291.624 14.8637 291.477 14.2397 291.477 13.529C291.477 12.827 291.629 12.2073 291.932 11.67C292.235 11.1327 292.651 10.7167 293.18 10.422C293.709 10.1273 294.311 9.98 294.987 9.98C295.464 9.98 295.897 10.0623 296.287 10.227C296.686 10.3917 297.019 10.6387 297.288 10.968V10.058H298.835ZM295.169 15.7C295.767 15.7 296.261 15.5007 296.651 15.102C297.041 14.7033 297.236 14.179 297.236 13.529C297.236 12.879 297.041 12.3547 296.651 11.956C296.261 11.5573 295.767 11.358 295.169 11.358C294.571 11.358 294.077 11.5573 293.687 11.956C293.306 12.3547 293.115 12.879 293.115 13.529C293.115 14.179 293.306 14.7033 293.687 15.102C294.077 15.5007 294.571 15.7 295.169 15.7ZM307.682 10.058V17H306.135V16.116C305.875 16.428 305.55 16.6707 305.16 16.844C304.77 17.0087 304.35 17.091 303.899 17.091C302.972 17.091 302.239 16.8353 301.702 16.324C301.173 15.804 300.909 15.037 300.909 14.023V10.058H302.534V13.802C302.534 14.426 302.673 14.894 302.95 15.206C303.236 15.5093 303.639 15.661 304.159 15.661C304.74 15.661 305.199 15.4833 305.537 15.128C305.884 14.764 306.057 14.244 306.057 13.568V10.058H307.682ZM312.462 9.98C313.484 9.98 314.264 10.227 314.802 10.721C315.348 11.2063 315.621 11.943 315.621 12.931V17H314.087V16.155C313.887 16.4583 313.601 16.6923 313.229 16.857C312.865 17.013 312.423 17.091 311.903 17.091C311.383 17.091 310.928 17.0043 310.538 16.831C310.148 16.649 309.844 16.402 309.628 16.09C309.42 15.7693 309.316 15.4097 309.316 15.011C309.316 14.387 309.545 13.8887 310.005 13.516C310.473 13.1347 311.205 12.944 312.202 12.944H313.996V12.84C313.996 12.3547 313.848 11.982 313.554 11.722C313.268 11.462 312.839 11.332 312.267 11.332C311.877 11.332 311.491 11.3927 311.11 11.514C310.737 11.6353 310.421 11.8043 310.161 12.021L309.524 10.838C309.888 10.5607 310.325 10.3483 310.837 10.201C311.348 10.0537 311.89 9.98 312.462 9.98ZM312.241 15.908C312.648 15.908 313.008 15.817 313.32 15.635C313.64 15.4443 313.866 15.1757 313.996 14.829V14.023H312.319C311.383 14.023 310.915 14.3307 310.915 14.946C310.915 15.2407 311.032 15.4747 311.266 15.648C311.5 15.8213 311.825 15.908 312.241 15.908ZM319.253 11.072C319.721 10.344 320.544 9.98 321.723 9.98V11.527C321.584 11.501 321.459 11.488 321.346 11.488C320.713 11.488 320.219 11.6743 319.864 12.047C319.509 12.411 319.331 12.9397 319.331 13.633V17H317.706V10.058H319.253V11.072ZM329.564 13.568C329.564 13.6807 329.556 13.841 329.538 14.049H324.091C324.187 14.5603 324.434 14.9677 324.832 15.271C325.24 15.5657 325.742 15.713 326.34 15.713C327.103 15.713 327.731 15.4617 328.225 14.959L329.096 15.96C328.784 16.3327 328.39 16.6143 327.913 16.805C327.437 16.9957 326.899 17.091 326.301 17.091C325.539 17.091 324.867 16.9393 324.286 16.636C323.706 16.3327 323.255 15.9123 322.934 15.375C322.622 14.829 322.466 14.2137 322.466 13.529C322.466 12.853 322.618 12.2463 322.921 11.709C323.233 11.163 323.662 10.7383 324.208 10.435C324.754 10.1317 325.37 9.98 326.054 9.98C326.73 9.98 327.333 10.1317 327.861 10.435C328.399 10.7297 328.815 11.15 329.109 11.696C329.413 12.2333 329.564 12.8573 329.564 13.568ZM326.054 11.28C325.534 11.28 325.092 11.436 324.728 11.748C324.373 12.0513 324.156 12.4587 324.078 12.97H328.017C327.948 12.4673 327.736 12.06 327.38 11.748C327.025 11.436 326.583 11.28 326.054 11.28Z" fill="black"/>
<path d="M22.9107 12.268C23.4134 12.4327 23.8121 12.71 24.1067 13.1C24.4014 13.4813 24.5487 13.958 24.5487 14.53C24.5487 15.3187 24.2454 15.9297 23.6387 16.363C23.0321 16.7877 22.1481 17 20.9867 17H16.4627V7.9H20.7267C21.8014 7.9 22.6291 8.11233 23.2097 8.537C23.7904 8.953 24.0807 9.52933 24.0807 10.266C24.0807 10.7167 23.9767 11.1153 23.7687 11.462C23.5607 11.8087 23.2747 12.0773 22.9107 12.268ZM18.1527 9.226V11.735H20.5447C21.1341 11.735 21.5847 11.631 21.8967 11.423C22.2174 11.2063 22.3777 10.8943 22.3777 10.487C22.3777 10.071 22.2174 9.759 21.8967 9.551C21.5847 9.33433 21.1341 9.226 20.5447 9.226H18.1527ZM20.8827 15.674C22.1914 15.674 22.8457 15.2363 22.8457 14.361C22.8457 13.4857 22.1914 13.048 20.8827 13.048H18.1527V15.674H20.8827ZM26.1964 10.058H27.8214V17H26.1964V10.058ZM27.0154 8.914C26.7207 8.914 26.4737 8.823 26.2744 8.641C26.075 8.45033 25.9754 8.21633 25.9754 7.939C25.9754 7.66167 26.075 7.432 26.2744 7.25C26.4737 7.05933 26.7207 6.964 27.0154 6.964C27.31 6.964 27.557 7.055 27.7564 7.237C27.9557 7.41033 28.0554 7.63133 28.0554 7.9C28.0554 8.186 27.9557 8.42867 27.7564 8.628C27.5657 8.81867 27.3187 8.914 27.0154 8.914ZM36.8442 10.058V15.947C36.8442 18.391 35.5962 19.613 33.1002 19.613C32.4329 19.613 31.8002 19.5263 31.2022 19.353C30.6042 19.1883 30.1102 18.9457 29.7202 18.625L30.4482 17.403C30.7515 17.6543 31.1329 17.8537 31.5922 18.001C32.0602 18.157 32.5325 18.235 33.0092 18.235C33.7719 18.235 34.3309 18.0617 34.6862 17.715C35.0415 17.3683 35.2192 16.8397 35.2192 16.129V15.765C34.9419 16.0683 34.6039 16.298 34.2052 16.454C33.8065 16.61 33.3689 16.688 32.8922 16.688C32.2335 16.688 31.6355 16.5493 31.0982 16.272C30.5695 15.986 30.1492 15.5873 29.8372 15.076C29.5339 14.5647 29.3822 13.9797 29.3822 13.321C29.3822 12.6623 29.5339 12.0817 29.8372 11.579C30.1492 11.0677 30.5695 10.6733 31.0982 10.396C31.6355 10.1187 32.2335 9.98 32.8922 9.98C33.3949 9.98 33.8499 10.0623 34.2572 10.227C34.6732 10.3917 35.0199 10.643 35.2972 10.981V10.058H36.8442ZM33.1392 15.31C33.7545 15.31 34.2572 15.128 34.6472 14.764C35.0459 14.3913 35.2452 13.9103 35.2452 13.321C35.2452 12.7403 35.0459 12.268 34.6472 11.904C34.2572 11.54 33.7545 11.358 33.1392 11.358C32.5152 11.358 32.0039 11.54 31.6052 11.904C31.2152 12.268 31.0202 12.7403 31.0202 13.321C31.0202 13.9103 31.2152 14.3913 31.6052 14.764C32.0039 15.128 32.5152 15.31 33.1392 15.31ZM45.5503 17.13C44.8483 17.13 44.168 17.0303 43.5093 16.831C42.8593 16.6317 42.3437 16.3673 41.9623 16.038L42.5473 14.725C42.92 15.0197 43.375 15.2623 43.9123 15.453C44.4583 15.635 45.0043 15.726 45.5503 15.726C46.2263 15.726 46.729 15.6177 47.0583 15.401C47.3963 15.1843 47.5653 14.8983 47.5653 14.543C47.5653 14.283 47.47 14.0707 47.2793 13.906C47.0973 13.7327 46.8633 13.5983 46.5773 13.503C46.2913 13.4077 45.9013 13.2993 45.4073 13.178C44.714 13.0133 44.1507 12.8487 43.7173 12.684C43.2927 12.5193 42.9243 12.2637 42.6123 11.917C42.309 11.5617 42.1573 11.085 42.1573 10.487C42.1573 9.98433 42.2917 9.52933 42.5603 9.122C42.8377 8.706 43.2493 8.37667 43.7953 8.134C44.35 7.89133 45.026 7.77 45.8233 7.77C46.378 7.77 46.924 7.83933 47.4613 7.978C47.9987 8.11667 48.4623 8.316 48.8523 8.576L48.3193 9.889C47.9207 9.655 47.5047 9.47733 47.0713 9.356C46.638 9.23467 46.2177 9.174 45.8103 9.174C45.143 9.174 44.6447 9.28667 44.3153 9.512C43.9947 9.73733 43.8343 10.0363 43.8343 10.409C43.8343 10.669 43.9253 10.8813 44.1073 11.046C44.298 11.2107 44.5363 11.3407 44.8223 11.436C45.1083 11.5313 45.4983 11.6397 45.9923 11.761C46.6683 11.917 47.223 12.0817 47.6563 12.255C48.0897 12.4197 48.458 12.6753 48.7613 13.022C49.0733 13.3687 49.2293 13.8367 49.2293 14.426C49.2293 14.9287 49.0907 15.3837 48.8133 15.791C48.5447 16.1983 48.133 16.5233 47.5783 16.766C47.0237 17.0087 46.3477 17.13 45.5503 17.13ZM57.5351 10.058V19.522H55.9101V16.155C55.3641 16.779 54.6231 17.091 53.6871 17.091C53.0111 17.091 52.4044 16.9437 51.8671 16.649C51.3384 16.3543 50.9224 15.9383 50.6191 15.401C50.3244 14.8637 50.1771 14.2397 50.1771 13.529C50.1771 12.827 50.3288 12.2073 50.6321 11.67C50.9354 11.1327 51.3514 10.7167 51.8801 10.422C52.4088 10.1273 53.0111 9.98 53.6871 9.98C54.1638 9.98 54.5971 10.0623 54.9871 10.227C55.3858 10.3917 55.7194 10.6387 55.9881 10.968V10.058H57.5351ZM53.8691 15.7C54.4671 15.7 54.9611 15.5007 55.3511 15.102C55.7411 14.7033 55.9361 14.179 55.9361 13.529C55.9361 12.879 55.7411 12.3547 55.3511 11.956C54.9611 11.5573 54.4671 11.358 53.8691 11.358C53.2711 11.358 52.7771 11.5573 52.3871 11.956C52.0058 12.3547 51.8151 12.879 51.8151 13.529C51.8151 14.179 52.0058 14.7033 52.3871 15.102C52.7771 15.5007 53.2711 15.7 53.8691 15.7ZM66.3822 10.058V17H64.8352V16.116C64.5752 16.428 64.2502 16.6707 63.8602 16.844C63.4702 17.0087 63.0499 17.091 62.5992 17.091C61.6719 17.091 60.9395 16.8353 60.4022 16.324C59.8735 15.804 59.6092 15.037 59.6092 14.023V10.058H61.2342V13.802C61.2342 14.426 61.3729 14.894 61.6502 15.206C61.9362 15.5093 62.3392 15.661 62.8592 15.661C63.4399 15.661 63.8992 15.4833 64.2372 15.128C64.5839 14.764 64.7572 14.244 64.7572 13.568V10.058H66.3822ZM71.1618 9.98C72.1845 9.98 72.9645 10.227 73.5018 10.721C74.0478 11.2063 74.3208 11.943 74.3208 12.931V17H72.7868V16.155C72.5875 16.4583 72.3015 16.6923 71.9288 16.857C71.5648 17.013 71.1228 17.091 70.6028 17.091C70.0828 17.091 69.6278 17.0043 69.2378 16.831C68.8478 16.649 68.5445 16.402 68.3278 16.09C68.1198 15.7693 68.0158 15.4097 68.0158 15.011C68.0158 14.387 68.2455 13.8887 68.7048 13.516C69.1728 13.1347 69.9052 12.944 70.9018 12.944H72.6958V12.84C72.6958 12.3547 72.5485 11.982 72.2538 11.722C71.9678 11.462 71.5388 11.332 70.9668 11.332C70.5768 11.332 70.1912 11.3927 69.8098 11.514C69.4372 11.6353 69.1208 11.8043 68.8608 12.021L68.2238 10.838C68.5878 10.5607 69.0255 10.3483 69.5368 10.201C70.0482 10.0537 70.5898 9.98 71.1618 9.98ZM70.9408 15.908C71.3482 15.908 71.7078 15.817 72.0198 15.635C72.3405 15.4443 72.5658 15.1757 72.6958 14.829V14.023H71.0188C70.0828 14.023 69.6148 14.3307 69.6148 14.946C69.6148 15.2407 69.7318 15.4747 69.9658 15.648C70.1998 15.8213 70.5248 15.908 70.9408 15.908ZM77.9533 11.072C78.4213 10.344 79.2447 9.98 80.4233 9.98V11.527C80.2847 11.501 80.159 11.488 80.0463 11.488C79.4137 11.488 78.9197 11.6743 78.5643 12.047C78.209 12.411 78.0313 12.9397 78.0313 13.633V17H76.4063V10.058H77.9533V11.072ZM88.2644 13.568C88.2644 13.6807 88.2557 13.841 88.2384 14.049H82.7914C82.8867 14.5603 83.1337 14.9677 83.5324 15.271C83.9397 15.5657 84.4424 15.713 85.0404 15.713C85.803 15.713 86.4314 15.4617 86.9254 14.959L87.7964 15.96C87.4844 16.3327 87.09 16.6143 86.6134 16.805C86.1367 16.9957 85.5994 17.091 85.0014 17.091C84.2387 17.091 83.567 16.9393 82.9864 16.636C82.4057 16.3327 81.955 15.9123 81.6344 15.375C81.3224 14.829 81.1664 14.2137 81.1664 13.529C81.1664 12.853 81.318 12.2463 81.6214 11.709C81.9334 11.163 82.3624 10.7383 82.9084 10.435C83.4544 10.1317 84.0697 9.98 84.7544 9.98C85.4304 9.98 86.0327 10.1317 86.5614 10.435C87.0987 10.7297 87.5147 11.15 87.8094 11.696C88.1127 12.2333 88.2644 12.8573 88.2644 13.568ZM84.7544 11.28C84.2344 11.28 83.7924 11.436 83.4284 11.748C83.073 12.0513 82.8564 12.4587 82.7784 12.97H86.7174C86.648 12.4673 86.4357 12.06 86.0804 11.748C85.725 11.436 85.283 11.28 84.7544 11.28Z" fill="black"/>
<rect x="269.677" y="57.6913" width="60.4609" height="60.4609" fill="white" stroke="black" stroke-width="0.5"/>
<rect x="385.503" y="57.6913" width="60.4609" height="60.4609" fill="white" stroke="black" stroke-width="0.5"/>
<rect x="269.677" y="175.549" width="60.4609" height="60.4609" fill="white" stroke="black" stroke-width="0.5"/>
<rect x="328.606" y="175.549" width="60.4609" height="60.4609" fill="white" stroke="black" stroke-width="0.5"/>
<rect x="385.503" y="175.549" width="60.4609" height="60.4609" fill="white" stroke="black" stroke-width="0.5"/>
<rect x="269.677" y="116.62" width="60.4609" height="60.4609" fill="white" stroke="black" stroke-width="0.5"/>
<rect x="328.606" y="116.62" width="60.4609" height="60.4609" fill="white" stroke="black" stroke-width="0.5"/>
<rect x="385.503" y="116.62" width="60.4609" height="60.4609" fill="white" stroke="black" stroke-width="0.5"/>
<g filter="url(#filter4_d)">
<rect x="328" y="57" width="57" height="59" fill="white"/>
<rect x="328.25" y="57.25" width="56.5" height="58.5" stroke="black" stroke-width="0.5"/>
</g>
<rect x="328" y="58" width="57" height="57" stroke="#DD0000"/>
<rect x="444.432" y="57.6913" width="60.4609" height="60.4609" fill="#E6E6E6" stroke="black" stroke-width="0.5"/>
<path d="M503.36 57.6913H563.821V118.152H503.36V57.6913Z" fill="#E6E6E6" stroke="black" stroke-width="0.5"/>
<path d="M562.289 57.6913H622.75V118.152H562.289V57.6913Z" fill="#E6E6E6" stroke="black" stroke-width="0.5"/>
<rect x="444.432" y="175.549" width="60.4609" height="60.4609" fill="#E6E6E6" stroke="black" stroke-width="0.5"/>
<path d="M503.36 175.549H563.821V236.01H503.36V175.549Z" fill="#E6E6E6" stroke="black" stroke-width="0.5"/>
<path d="M562.289 175.549H622.75V236.01H562.289V175.549Z" fill="#E6E6E6" stroke="black" stroke-width="0.5"/>
<rect x="444.432" y="116.62" width="60.4609" height="60.4609" fill="#E6E6E6" stroke="black" stroke-width="0.5"/>
<path d="M503.36 116.62H563.821V177.081H503.36V116.62Z" fill="#E6E6E6" stroke="black" stroke-width="0.5"/>
<path d="M562.289 116.62H622.75V177.081H562.289V116.62Z" fill="#E6E6E6" stroke="black" stroke-width="0.5"/>
<rect x="92.8906" y="293.407" width="60.4609" height="60.4609" fill="white" stroke="black" stroke-width="0.5"/>
<rect x="151.819" y="293.407" width="60.4609" height="60.4609" fill="white" stroke="black" stroke-width="0.5"/>
<rect x="210.748" y="293.407" width="60.4609" height="60.4609" fill="white" stroke="black" stroke-width="0.5"/>
<rect x="92.8906" y="352.335" width="60.4609" height="60.4609" fill="white" stroke="black" stroke-width="0.5"/>
<rect x="151.819" y="352.335" width="60.4609" height="60.4609" fill="white" stroke="black" stroke-width="0.5"/>
<rect x="210.748" y="352.335" width="60.4609" height="60.4609" fill="white" stroke="black" stroke-width="0.5"/>
<rect x="92.8906" y="234.478" width="60.4609" height="60.4609" fill="white" stroke="black" stroke-width="0.5"/>
<rect x="151.819" y="234.478" width="60.4609" height="60.4609" fill="white" stroke="black" stroke-width="0.5"/>
<rect x="210.748" y="234.478" width="60.4609" height="60.4609" fill="white" stroke="black" stroke-width="0.5"/>
<rect x="269.677" y="293.407" width="60.4609" height="60.4609" fill="#E5E5E5" stroke="black" stroke-width="0.5"/>
<rect x="328.606" y="293.407" width="60.4609" height="60.4609" fill="#E5E5E5" stroke="black" stroke-width="0.5"/>
<rect x="385.503" y="293.407" width="60.4609" height="60.4609" fill="#E5E5E5" stroke="black" stroke-width="0.5"/>
<rect x="269.677" y="352.335" width="60.4609" height="60.4609" fill="#E5E5E5" stroke="black" stroke-width="0.5"/>
<rect x="328.606" y="352.335" width="60.4609" height="60.4609" fill="#E5E5E5" stroke="black" stroke-width="0.5"/>
<rect x="385.503" y="352.335" width="60.4609" height="60.4609" fill="#E5E5E5" stroke="black" stroke-width="0.5"/>
<rect x="269.677" y="234.478" width="60.4609" height="60.4609" fill="#E5E5E5" stroke="black" stroke-width="0.5"/>
<rect x="328.606" y="234.478" width="60.4609" height="60.4609" fill="#E5E5E5" stroke="black" stroke-width="0.5"/>
<rect x="385.503" y="234.478" width="60.4609" height="60.4609" fill="#E5E5E5" stroke="black" stroke-width="0.5"/>
<rect x="444.432" y="293.407" width="60.4609" height="60.4609" fill="white" stroke="black" stroke-width="0.5"/>
<path d="M503.36 293.407H563.821V353.867H503.36V293.407Z" fill="white" stroke="black" stroke-width="0.5"/>
<path d="M562.289 293.407H622.75V353.867H562.289V293.407Z" fill="white" stroke="black" stroke-width="0.5"/>
<rect x="444.432" y="352.335" width="60.4609" height="60.4609" fill="white" stroke="black" stroke-width="0.5"/>
<path d="M503.36 352.335H563.821V412.796H503.36V352.335Z" fill="white" stroke="black" stroke-width="0.5"/>
<path d="M562.289 352.335H622.75V412.796H562.289V352.335Z" fill="white" stroke="black" stroke-width="0.5"/>
<rect x="444.432" y="234.478" width="60.4609" height="60.4609" fill="white" stroke="black" stroke-width="0.5"/>
<path d="M503.36 234.478H563.821V294.939H503.36V234.478Z" fill="white" stroke="black" stroke-width="0.5"/>
<path d="M562.289 234.478H622.75V294.939H562.289V234.478Z" fill="white" stroke="black" stroke-width="0.5"/>
<rect x="92.8906" y="411.264" width="60.4609" height="60.4609" fill="#E5E5E5" stroke="black" stroke-width="0.5"/>
<rect x="151.819" y="411.264" width="60.4609" height="60.4609" fill="#E5E5E5" stroke="black" stroke-width="0.5"/>
<rect x="210.748" y="411.264" width="60.4609" height="60.4609" fill="#E5E5E5" stroke="black" stroke-width="0.5"/>
<rect x="92.8906" y="470.193" width="60.4609" height="60.4609" fill="#E5E5E5" stroke="black" stroke-width="0.5"/>
<rect x="151.819" y="470.193" width="60.4609" height="60.4609" fill="#E5E5E5" stroke="black" stroke-width="0.5"/>
<rect x="210.748" y="470.193" width="60.4609" height="60.4609" fill="#E5E5E5" stroke="black" stroke-width="0.5"/>
<rect x="92.8906" y="529.122" width="60.4609" height="60.4609" fill="#E5E5E5" stroke="black" stroke-width="0.5"/>
<rect x="151.819" y="529.122" width="60.4609" height="60.4609" fill="#E5E5E5" stroke="black" stroke-width="0.5"/>
<rect x="210.748" y="529.122" width="60.4609" height="60.4609" fill="#E5E5E5" stroke="black" stroke-width="0.5"/>
<rect x="269.677" y="411.264" width="60.4609" height="60.4609" fill="white" stroke="black" stroke-width="0.5"/>
<rect x="328.606" y="411.264" width="60.4609" height="60.4609" fill="white" stroke="black" stroke-width="0.5"/>
<rect x="385.503" y="411.264" width="60.4609" height="60.4609" fill="white" stroke="black" stroke-width="0.5"/>
<rect x="269.677" y="470.193" width="60.4609" height="60.4609" fill="white" stroke="black" stroke-width="0.5"/>
<rect x="328.606" y="470.193" width="60.4609" height="60.4609" fill="white" stroke="black" stroke-width="0.5"/>
<rect x="385.503" y="470.193" width="60.4609" height="60.4609" fill="white" stroke="black" stroke-width="0.5"/>
<rect x="269.677" y="529.122" width="60.4609" height="60.4609" fill="white" stroke="black" stroke-width="0.5"/>
<rect x="328.606" y="529.122" width="60.4609" height="60.4609" fill="white" stroke="black" stroke-width="0.5"/>
<rect x="385.503" y="529.122" width="60.4609" height="60.4609" fill="white" stroke="black" stroke-width="0.5"/>
<rect x="444.432" y="411.264" width="60.4609" height="60.4609" fill="#E5E5E5" stroke="black" stroke-width="0.5"/>
<path d="M503.36 411.264H563.821V471.725H503.36V411.264Z" fill="#E5E5E5" stroke="black" stroke-width="0.5"/>
<path d="M562.289 411.264H622.75V471.725H562.289V411.264Z" fill="#E5E5E5" stroke="black" stroke-width="0.5"/>
<rect x="444.432" y="470.193" width="60.4609" height="60.4609" fill="#E5E5E5" stroke="black" stroke-width="0.5"/>
<path d="M503.36 470.193H563.821V530.654H503.36V470.193Z" fill="#E5E5E5" stroke="black" stroke-width="0.5"/>
<path d="M562.289 470.193H622.75V530.654H562.289V470.193Z" fill="#E5E5E5" stroke="black" stroke-width="0.5"/>
<rect x="444.432" y="529.122" width="60.4609" height="60.4609" fill="#E5E5E5" stroke="black" stroke-width="0.5"/>
<path d="M503.36 529.122H563.821V589.583H503.36V529.122Z" fill="#E5E5E5" stroke="black" stroke-width="0.5"/>
<path d="M562.289 529.122H622.75V589.583H562.289V529.122Z" fill="#E5E5E5" stroke="black" stroke-width="0.5"/>
<g filter="url(#filter5_d)">
<rect x="93" y="57" width="176" height="177" fill="#E5E5E5"/>
</g>
<rect x="92.8906" y="57.6913" width="60.4609" height="60.4609" fill="#E5E5E5" stroke="black" stroke-width="0.5"/>
<rect x="151.819" y="57.6913" width="60.4609" height="60.4609" fill="#E5E5E5" stroke="black" stroke-width="0.5"/>
<rect x="210.748" y="57.6913" width="60.4609" height="60.4609" fill="#E5E5E5" stroke="black" stroke-width="0.5"/>
<rect x="92.8906" y="175.549" width="60.4609" height="60.4609" fill="#E5E5E5" stroke="black" stroke-width="0.5"/>
<rect x="151.819" y="175.549" width="60.4609" height="60.4609" fill="#E5E5E5" stroke="black" stroke-width="0.5"/>
<rect x="210.748" y="175.549" width="60.4609" height="60.4609" fill="#E5E5E5" stroke="black" stroke-width="0.5"/>
<rect x="92.8906" y="116.62" width="60.4609" height="60.4609" fill="#E5E5E5" stroke="black" stroke-width="0.5"/>
<rect x="151.819" y="116.62" width="60.4609" height="60.4609" fill="#E5E5E5" stroke="black" stroke-width="0.5"/>
<rect x="210.748" y="116.62" width="60.4609" height="60.4609" fill="#E5E5E5" stroke="black" stroke-width="0.5"/>
<line x1="270.177" y1="57.4413" x2="270.177" y2="589.833" stroke="black" stroke-width="1.5"/>
<line x1="444.932" y1="57.4413" x2="444.932" y2="589.833" stroke="black" stroke-width="1.5"/>
<line x1="623" y1="234.978" x2="92.6406" y2="234.978" stroke="black" stroke-width="1.5"/>
<line x1="623" y1="411.764" x2="92.6406" y2="411.764" stroke="black" stroke-width="1.5"/>
<path d="M180.33 85.8633C182.13 85.8633 183.45 86.2053 184.29 86.8893C185.142 87.5613 185.568 88.4853 185.568 89.6613C185.568 90.4053 185.388 91.0773 185.028 91.6773C184.68 92.2653 184.146 92.7333 183.426 93.0813C182.718 93.4173 181.842 93.5853 180.798 93.5853C179.91 93.5853 179.052 93.4533 178.224 93.1893C177.396 92.9133 176.712 92.5353 176.172 92.0553L177 90.6333C177.432 91.0413 177.984 91.3713 178.656 91.6233C179.328 91.8633 180.036 91.9833 180.78 91.9833C181.728 91.9833 182.46 91.7853 182.976 91.3893C183.504 90.9813 183.768 90.4293 183.768 89.7333C183.768 88.9773 183.48 88.4073 182.904 88.0233C182.328 87.6273 181.344 87.4293 179.952 87.4293H177.09L177.756 80.8413H184.866V82.4073H179.268L178.926 85.8633H180.33Z" fill="black"/>
<path d="M592.832 264.682C594.632 264.682 595.952 265.024 596.792 265.708C597.644 266.38 598.07 267.304 598.07 268.48C598.07 269.224 597.89 269.896 597.53 270.496C597.182 271.084 596.648 271.552 595.928 271.9C595.22 272.236 594.344 272.404 593.3 272.404C592.412 272.404 591.554 272.272 590.726 272.008C589.898 271.732 589.214 271.354 588.674 270.874L589.502 269.452C589.934 269.86 590.486 270.19 591.158 270.442C591.83 270.682 592.538 270.802 593.282 270.802C594.23 270.802 594.962 270.604 595.478 270.208C596.006 269.8 596.27 269.248 596.27 268.552C596.27 267.796 595.982 267.226 595.406 266.842C594.83 266.446 593.846 266.248 592.454 266.248H589.592L590.258 259.66H597.368V261.226H591.77L591.428 264.682H592.832Z" fill="black"/>
<path d="M362.485 80.8413V82.0653L357.391 93.4413H355.483L360.469 82.4073H354.709V84.6573H352.981V80.8413H362.485Z" fill="black"/>
<path d="M244.628 200.731V201.955L239.534 213.331H237.626L242.612 202.297H236.852V204.547H235.124V200.731H244.628Z" fill="black"/>
<path d="M305.589 318.589V319.813L300.495 331.189H298.587L303.573 320.155H297.813V322.405H296.085V318.589H305.589Z" fill="black"/>
<path d="M480.343 436.446V437.67L475.249 449.046H473.341L478.327 438.012H472.567V440.262H470.839V436.446H480.343Z" fill="black"/>
<path d="M126.77 493.343V494.567L121.676 505.943H119.768L124.754 494.909H118.994V497.159H117.266V493.343H126.77Z" fill="black"/>
<path d="M419.382 554.304V555.528L414.288 566.904H412.38L417.366 555.87H411.606V558.12H409.878V554.304H419.382Z" fill="black"/>
<path d="M126.657 211.765V213.331H117.603V212.107L122.733 207.157C123.357 206.557 123.777 206.041 123.993 205.609C124.209 205.165 124.317 204.721 124.317 204.277C124.317 203.617 124.083 203.107 123.615 202.747C123.159 202.375 122.499 202.189 121.635 202.189C120.243 202.189 119.169 202.645 118.413 203.557L117.189 202.495C117.681 201.895 118.323 201.427 119.115 201.091C119.919 200.755 120.813 200.587 121.797 200.587C123.117 200.587 124.167 200.905 124.947 201.541C125.727 202.165 126.117 203.017 126.117 204.097C126.117 204.769 125.973 205.405 125.685 206.005C125.397 206.605 124.851 207.289 124.047 208.057L120.195 211.765H126.657Z" fill="black"/>
<path d="M187.618 270.694V272.26H178.564V271.036L183.694 266.086C184.318 265.486 184.738 264.97 184.954 264.538C185.17 264.094 185.278 263.65 185.278 263.206C185.278 262.546 185.044 262.036 184.576 261.676C184.12 261.304 183.46 261.118 182.596 261.118C181.204 261.118 180.13 261.574 179.374 262.486L178.15 261.424C178.642 260.824 179.284 260.356 180.076 260.02C180.88 259.684 181.774 259.516 182.758 259.516C184.078 259.516 185.128 259.834 185.908 260.47C186.688 261.094 187.078 261.946 187.078 263.026C187.078 263.698 186.934 264.334 186.646 264.934C186.358 265.534 185.812 266.218 185.008 266.986L181.156 270.694H187.618Z" fill="black"/>
<path d="M362.372 504.377V505.943H353.318V504.719L358.448 499.769C359.072 499.169 359.492 498.653 359.708 498.221C359.924 497.777 360.032 497.333 360.032 496.889C360.032 496.229 359.798 495.719 359.33 495.359C358.874 494.987 358.214 494.801 357.35 494.801C355.958 494.801 354.884 495.257 354.128 496.169L352.904 495.107C353.396 494.507 354.038 494.039 354.83 493.703C355.634 493.367 356.528 493.199 357.512 493.199C358.832 493.199 359.882 493.517 360.662 494.153C361.442 494.777 361.832 495.629 361.832 496.709C361.832 497.381 361.688 498.017 361.4 498.617C361.112 499.217 360.566 499.901 359.762 500.669L355.91 504.377H362.372Z" fill="black"/>
<path d="M598.088 327.591V329.157H589.034V327.933L594.164 322.983C594.788 322.383 595.208 321.867 595.424 321.435C595.64 320.991 595.748 320.547 595.748 320.103C595.748 319.443 595.514 318.933 595.046 318.573C594.59 318.201 593.93 318.015 593.066 318.015C591.674 318.015 590.6 318.471 589.844 319.383L588.62 318.321C589.112 317.721 589.754 317.253 590.546 316.917C591.35 316.581 592.244 316.413 593.228 316.413C594.548 316.413 595.598 316.731 596.378 317.367C597.158 317.991 597.548 318.843 597.548 319.923C597.548 320.595 597.404 321.231 597.116 321.831C596.828 322.431 596.282 323.115 595.478 323.883L591.626 327.591H598.088Z" fill="black"/>
<path d="M123.544 257.628V270.228H121.762V259.194H118.918V257.628H123.544Z" fill="black"/>
<path d="M359.259 436.446V449.046H357.477V438.012H354.633V436.446H359.259Z" fill="black"/>
<path d="M594.975 495.375V507.975H593.193V496.941H590.349V495.375H594.975Z" fill="black"/>
<path d="M239.358 139.626C241.05 139.626 242.352 140.172 243.264 141.264C244.188 142.356 244.65 143.904 244.65 145.908C244.65 147.312 244.398 148.512 243.894 149.508C243.402 150.492 242.706 151.242 241.806 151.758C240.918 152.262 239.88 152.514 238.692 152.514C238.08 152.514 237.504 152.454 236.964 152.334C236.424 152.202 235.956 152.016 235.56 151.776L236.244 150.372C236.856 150.768 237.666 150.966 238.674 150.966C239.982 150.966 241.002 150.564 241.734 149.76C242.478 148.944 242.85 147.762 242.85 146.214V145.764C242.49 146.304 241.992 146.718 241.356 147.006C240.72 147.282 240.006 147.42 239.214 147.42C238.386 147.42 237.642 147.264 236.982 146.952C236.334 146.64 235.824 146.196 235.452 145.62C235.092 145.032 234.912 144.36 234.912 143.604C234.912 142.812 235.104 142.116 235.488 141.516C235.884 140.916 236.418 140.454 237.09 140.13C237.762 139.794 238.518 139.626 239.358 139.626ZM239.52 145.962C240.084 145.962 240.588 145.854 241.032 145.638C241.476 145.422 241.818 145.128 242.058 144.756C242.31 144.384 242.436 143.97 242.436 143.514C242.436 143.07 242.316 142.668 242.076 142.308C241.848 141.936 241.506 141.642 241.05 141.426C240.606 141.198 240.066 141.084 239.43 141.084C238.602 141.084 237.93 141.306 237.414 141.75C236.91 142.194 236.658 142.788 236.658 143.532C236.658 144.276 236.916 144.87 237.432 145.314C237.948 145.746 238.644 145.962 239.52 145.962Z" fill="black"/>
<path d="M414.112 495.231C415.804 495.231 417.106 495.777 418.018 496.869C418.942 497.961 419.404 499.509 419.404 501.513C419.404 502.917 419.152 504.117 418.648 505.113C418.156 506.097 417.46 506.847 416.56 507.363C415.672 507.867 414.634 508.119 413.446 508.119C412.834 508.119 412.258 508.059 411.718 507.939C411.178 507.807 410.71 507.621 410.314 507.381L410.998 505.977C411.61 506.373 412.42 506.571 413.428 506.571C414.736 506.571 415.756 506.169 416.488 505.365C417.232 504.549 417.604 503.367 417.604 501.819V501.369C417.244 501.909 416.746 502.323 416.11 502.611C415.474 502.887 414.76 503.025 413.968 503.025C413.14 503.025 412.396 502.869 411.736 502.557C411.088 502.245 410.578 501.801 410.206 501.225C409.846 500.637 409.666 499.965 409.666 499.209C409.666 498.417 409.858 497.721 410.242 497.121C410.638 496.521 411.172 496.059 411.844 495.735C412.516 495.399 413.272 495.231 414.112 495.231ZM414.274 501.567C414.838 501.567 415.342 501.459 415.786 501.243C416.23 501.027 416.572 500.733 416.812 500.361C417.064 499.989 417.19 499.575 417.19 499.119C417.19 498.675 417.07 498.273 416.83 497.913C416.602 497.541 416.26 497.247 415.804 497.031C415.36 496.803 414.82 496.689 414.184 496.689C413.356 496.689 412.684 496.911 412.168 497.355C411.664 497.799 411.412 498.393 411.412 499.137C411.412 499.881 411.67 500.475 412.186 500.919C412.702 501.351 413.398 501.567 414.274 501.567Z" fill="black"/>
<path d="M180.429 436.302C182.121 436.302 183.423 436.848 184.335 437.94C185.259 439.032 185.721 440.58 185.721 442.584C185.721 443.988 185.469 445.188 184.965 446.184C184.473 447.168 183.777 447.918 182.877 448.434C181.989 448.938 180.951 449.19 179.763 449.19C179.151 449.19 178.575 449.13 178.035 449.01C177.495 448.878 177.027 448.692 176.631 448.452L177.315 447.048C177.927 447.444 178.737 447.642 179.745 447.642C181.053 447.642 182.073 447.24 182.805 446.436C183.549 445.62 183.921 444.438 183.921 442.89V442.44C183.561 442.98 183.063 443.394 182.427 443.682C181.791 443.958 181.077 444.096 180.285 444.096C179.457 444.096 178.713 443.94 178.053 443.628C177.405 443.316 176.895 442.872 176.523 442.296C176.163 441.708 175.983 441.036 175.983 440.28C175.983 439.488 176.175 438.792 176.559 438.192C176.955 437.592 177.489 437.13 178.161 436.806C178.833 436.47 179.589 436.302 180.429 436.302ZM180.591 442.638C181.155 442.638 181.659 442.53 182.103 442.314C182.547 442.098 182.889 441.804 183.129 441.432C183.381 441.06 183.507 440.646 183.507 440.19C183.507 439.746 183.387 439.344 183.147 438.984C182.919 438.612 182.577 438.318 182.121 438.102C181.677 437.874 181.137 437.76 180.501 437.76C179.673 437.76 179.001 437.982 178.485 438.426C177.981 438.87 177.729 439.464 177.729 440.208C177.729 440.952 177.987 441.546 178.503 441.99C179.019 442.422 179.715 442.638 180.591 442.638Z" fill="black"/>
<path d="M358.358 147.094C359.594 147.214 360.536 147.598 361.184 148.246C361.832 148.882 362.156 149.698 362.156 150.694C362.156 151.414 361.976 152.068 361.616 152.656C361.256 153.232 360.716 153.694 359.996 154.042C359.288 154.378 358.418 154.546 357.386 154.546C356.486 154.546 355.622 154.414 354.794 154.15C353.966 153.874 353.288 153.496 352.76 153.016L353.588 151.594C354.02 152.002 354.572 152.332 355.244 152.584C355.916 152.824 356.63 152.944 357.386 152.944C358.322 152.944 359.048 152.746 359.564 152.35C360.092 151.954 360.356 151.408 360.356 150.712C360.356 150.016 360.098 149.476 359.582 149.092C359.066 148.708 358.286 148.516 357.242 148.516H356.234V147.256L359.402 143.368H353.336V141.802H361.652V143.026L358.358 147.094Z" fill="black"/>
<path d="M476.216 321.849C477.452 321.969 478.394 322.353 479.042 323.001C479.69 323.637 480.014 324.453 480.014 325.449C480.014 326.169 479.834 326.823 479.474 327.411C479.114 327.987 478.574 328.449 477.854 328.797C477.146 329.133 476.276 329.301 475.244 329.301C474.344 329.301 473.48 329.169 472.652 328.905C471.824 328.629 471.146 328.251 470.618 327.771L471.446 326.349C471.878 326.757 472.43 327.087 473.102 327.339C473.774 327.579 474.488 327.699 475.244 327.699C476.18 327.699 476.906 327.501 477.422 327.105C477.95 326.709 478.214 326.163 478.214 325.467C478.214 324.771 477.956 324.231 477.44 323.847C476.924 323.463 476.144 323.271 475.1 323.271H474.092V322.011L477.26 318.123H471.194V316.557H479.51V317.781L476.216 321.849Z" fill="black"/>
<path d="M301.461 559.596C302.697 559.716 303.639 560.1 304.287 560.748C304.935 561.384 305.259 562.2 305.259 563.196C305.259 563.916 305.079 564.57 304.719 565.158C304.359 565.734 303.819 566.196 303.099 566.544C302.391 566.88 301.521 567.048 300.489 567.048C299.589 567.048 298.725 566.916 297.897 566.652C297.069 566.376 296.391 565.998 295.863 565.518L296.691 564.096C297.123 564.504 297.675 564.834 298.347 565.086C299.019 565.326 299.733 565.446 300.489 565.446C301.425 565.446 302.151 565.248 302.667 564.852C303.195 564.456 303.459 563.91 303.459 563.214C303.459 562.518 303.201 561.978 302.685 561.594C302.169 561.21 301.389 561.018 300.345 561.018H299.337V559.758L302.505 555.87H296.439V554.304H304.755V555.528L301.461 559.596Z" fill="black"/>
<path d="M417.493 145.764C418.213 146.04 418.765 146.436 419.149 146.952C419.533 147.468 419.725 148.086 419.725 148.806C419.725 149.562 419.521 150.222 419.113 150.786C418.705 151.338 418.123 151.764 417.367 152.064C416.611 152.364 415.723 152.514 414.703 152.514C413.695 152.514 412.813 152.364 412.057 152.064C411.313 151.764 410.737 151.338 410.329 150.786C409.921 150.222 409.717 149.562 409.717 148.806C409.717 148.086 409.903 147.468 410.275 146.952C410.659 146.436 411.211 146.04 411.931 145.764C411.355 145.488 410.917 145.122 410.617 144.666C410.317 144.21 410.167 143.67 410.167 143.046C410.167 142.35 410.353 141.744 410.725 141.228C411.109 140.712 411.643 140.316 412.327 140.04C413.011 139.764 413.803 139.626 414.703 139.626C415.615 139.626 416.413 139.764 417.097 140.04C417.793 140.316 418.327 140.712 418.699 141.228C419.083 141.744 419.275 142.35 419.275 143.046C419.275 143.658 419.119 144.198 418.807 144.666C418.507 145.122 418.069 145.488 417.493 145.764ZM414.703 141.084C413.851 141.084 413.179 141.27 412.687 141.642C412.195 142.002 411.949 142.494 411.949 143.118C411.949 143.742 412.189 144.234 412.669 144.594C413.161 144.954 413.839 145.134 414.703 145.134C415.579 145.134 416.263 144.954 416.755 144.594C417.259 144.234 417.511 143.742 417.511 143.118C417.511 142.494 417.253 142.002 416.737 141.642C416.233 141.27 415.555 141.084 414.703 141.084ZM414.703 151.056C415.699 151.056 416.485 150.852 417.061 150.444C417.637 150.024 417.925 149.46 417.925 148.752C417.925 148.056 417.637 147.51 417.061 147.114C416.485 146.706 415.699 146.502 414.703 146.502C413.707 146.502 412.927 146.706 412.363 147.114C411.799 147.51 411.517 148.056 411.517 148.752C411.517 149.46 411.799 150.024 412.363 150.444C412.927 150.852 413.707 151.056 414.703 151.056Z" fill="black"/>
<path d="M537.383 322.551C538.103 322.827 538.655 323.223 539.039 323.739C539.423 324.255 539.615 324.873 539.615 325.593C539.615 326.349 539.411 327.009 539.003 327.573C538.595 328.125 538.013 328.551 537.257 328.851C536.501 329.151 535.613 329.301 534.593 329.301C533.585 329.301 532.703 329.151 531.947 328.851C531.203 328.551 530.627 328.125 530.219 327.573C529.811 327.009 529.607 326.349 529.607 325.593C529.607 324.873 529.793 324.255 530.165 323.739C530.549 323.223 531.101 322.827 531.821 322.551C531.245 322.275 530.807 321.909 530.507 321.453C530.207 320.997 530.057 320.457 530.057 319.833C530.057 319.137 530.243 318.531 530.615 318.015C530.999 317.499 531.533 317.103 532.217 316.827C532.901 316.551 533.693 316.413 534.593 316.413C535.505 316.413 536.303 316.551 536.987 316.827C537.683 317.103 538.217 317.499 538.589 318.015C538.973 318.531 539.165 319.137 539.165 319.833C539.165 320.445 539.009 320.985 538.697 321.453C538.397 321.909 537.959 322.275 537.383 322.551ZM534.593 317.871C533.741 317.871 533.069 318.057 532.577 318.429C532.085 318.789 531.839 319.281 531.839 319.905C531.839 320.529 532.079 321.021 532.559 321.381C533.051 321.741 533.729 321.921 534.593 321.921C535.469 321.921 536.153 321.741 536.645 321.381C537.149 321.021 537.401 320.529 537.401 319.905C537.401 319.281 537.143 318.789 536.627 318.429C536.123 318.057 535.445 317.871 534.593 317.871ZM534.593 327.843C535.589 327.843 536.375 327.639 536.951 327.231C537.527 326.811 537.815 326.247 537.815 325.539C537.815 324.843 537.527 324.297 536.951 323.901C536.375 323.493 535.589 323.289 534.593 323.289C533.597 323.289 532.817 323.493 532.253 323.901C531.689 324.297 531.407 324.843 531.407 325.539C531.407 326.247 531.689 326.811 532.253 327.231C532.817 327.639 533.597 327.843 534.593 327.843Z" fill="black"/>
<path d="M360.596 381.479C361.316 381.755 361.868 382.151 362.252 382.667C362.636 383.183 362.828 383.801 362.828 384.521C362.828 385.277 362.624 385.937 362.216 386.501C361.808 387.053 361.226 387.479 360.47 387.779C359.714 388.079 358.826 388.229 357.806 388.229C356.798 388.229 355.916 388.079 355.16 387.779C354.416 387.479 353.84 387.053 353.432 386.501C353.024 385.937 352.82 385.277 352.82 384.521C352.82 383.801 353.006 383.183 353.378 382.667C353.762 382.151 354.314 381.755 355.034 381.479C354.458 381.203 354.02 380.837 353.72 380.381C353.42 379.925 353.27 379.385 353.27 378.761C353.27 378.065 353.456 377.459 353.828 376.943C354.212 376.427 354.746 376.031 355.43 375.755C356.114 375.479 356.906 375.341 357.806 375.341C358.718 375.341 359.516 375.479 360.2 375.755C360.896 376.031 361.43 376.427 361.802 376.943C362.186 377.459 362.378 378.065 362.378 378.761C362.378 379.373 362.222 379.913 361.91 380.381C361.61 380.837 361.172 381.203 360.596 381.479ZM357.806 376.799C356.954 376.799 356.282 376.985 355.79 377.357C355.298 377.717 355.052 378.209 355.052 378.833C355.052 379.457 355.292 379.949 355.772 380.309C356.264 380.669 356.942 380.849 357.806 380.849C358.682 380.849 359.366 380.669 359.858 380.309C360.362 379.949 360.614 379.457 360.614 378.833C360.614 378.209 360.356 377.717 359.84 377.357C359.336 376.985 358.658 376.799 357.806 376.799ZM357.806 386.771C358.802 386.771 359.588 386.567 360.164 386.159C360.74 385.739 361.028 385.175 361.028 384.467C361.028 383.771 360.74 383.225 360.164 382.829C359.588 382.421 358.802 382.217 357.806 382.217C356.81 382.217 356.03 382.421 355.466 382.829C354.902 383.225 354.62 383.771 354.62 384.467C354.62 385.175 354.902 385.739 355.466 386.159C356.03 386.567 356.81 386.771 357.806 386.771Z" fill="black"/>
<path d="M124.881 560.298C125.601 560.574 126.153 560.97 126.537 561.486C126.921 562.002 127.113 562.62 127.113 563.34C127.113 564.096 126.909 564.756 126.501 565.32C126.093 565.872 125.511 566.298 124.755 566.598C123.999 566.898 123.111 567.048 122.091 567.048C121.083 567.048 120.201 566.898 119.445 566.598C118.701 566.298 118.125 565.872 117.717 565.32C117.309 564.756 117.105 564.096 117.105 563.34C117.105 562.62 117.291 562.002 117.663 561.486C118.047 560.97 118.599 560.574 119.319 560.298C118.743 560.022 118.305 559.656 118.005 559.2C117.705 558.744 117.555 558.204 117.555 557.58C117.555 556.884 117.741 556.278 118.113 555.762C118.497 555.246 119.031 554.85 119.715 554.574C120.399 554.298 121.191 554.16 122.091 554.16C123.003 554.16 123.801 554.298 124.485 554.574C125.181 554.85 125.715 555.246 126.087 555.762C126.471 556.278 126.663 556.884 126.663 557.58C126.663 558.192 126.507 558.732 126.195 559.2C125.895 559.656 125.457 560.022 124.881 560.298ZM122.091 555.618C121.239 555.618 120.567 555.804 120.075 556.176C119.583 556.536 119.337 557.028 119.337 557.652C119.337 558.276 119.577 558.768 120.057 559.128C120.549 559.488 121.227 559.668 122.091 559.668C122.967 559.668 123.651 559.488 124.143 559.128C124.647 558.768 124.899 558.276 124.899 557.652C124.899 557.028 124.641 556.536 124.125 556.176C123.621 555.804 122.943 555.618 122.091 555.618ZM122.091 565.59C123.087 565.59 123.873 565.386 124.449 564.978C125.025 564.558 125.313 563.994 125.313 563.286C125.313 562.59 125.025 562.044 124.449 561.648C123.873 561.24 123.087 561.036 122.091 561.036C121.095 561.036 120.315 561.24 119.751 561.648C119.187 562.044 118.905 562.59 118.905 563.286C118.905 563.994 119.187 564.558 119.751 564.978C120.315 565.386 121.095 565.59 122.091 565.59Z" fill="black"/>
<path d="M414.013 205.753C415.813 205.753 417.133 206.095 417.973 206.779C418.825 207.451 419.251 208.375 419.251 209.551C419.251 210.295 419.071 210.967 418.711 211.567C418.363 212.155 417.829 212.623 417.109 212.971C416.401 213.307 415.525 213.475 414.481 213.475C413.593 213.475 412.735 213.343 411.907 213.079C411.079 212.803 410.395 212.425 409.855 211.945L410.683 210.523C411.115 210.931 411.667 211.261 412.339 211.513C413.011 211.753 413.719 211.873 414.463 211.873C415.411 211.873 416.143 211.675 416.659 211.279C417.187 210.871 417.451 210.319 417.451 209.623C417.451 208.867 417.163 208.297 416.587 207.913C416.011 207.517 415.027 207.319 413.635 207.319H410.773L411.439 200.731H418.549V202.297H412.951L412.609 205.753H414.013Z" fill="black"/>
<path d="M241.291 559.326C243.091 559.326 244.411 559.668 245.251 560.352C246.103 561.024 246.529 561.948 246.529 563.124C246.529 563.868 246.349 564.54 245.989 565.14C245.641 565.728 245.107 566.196 244.387 566.544C243.679 566.88 242.803 567.048 241.759 567.048C240.871 567.048 240.013 566.916 239.185 566.652C238.357 566.376 237.673 565.998 237.133 565.518L237.961 564.096C238.393 564.504 238.945 564.834 239.617 565.086C240.289 565.326 240.997 565.446 241.741 565.446C242.689 565.446 243.421 565.248 243.937 564.852C244.465 564.444 244.729 563.892 244.729 563.196C244.729 562.44 244.441 561.87 243.865 561.486C243.289 561.09 242.305 560.892 240.913 560.892H238.051L238.717 554.304H245.827V555.87H240.229L239.887 559.326H241.291Z" fill="black"/>
<path d="M533.903 500.397C535.703 500.397 537.023 500.739 537.863 501.423C538.715 502.095 539.141 503.019 539.141 504.195C539.141 504.939 538.961 505.611 538.601 506.211C538.253 506.799 537.719 507.267 536.999 507.615C536.291 507.951 535.415 508.119 534.371 508.119C533.483 508.119 532.625 507.987 531.797 507.723C530.969 507.447 530.285 507.069 529.745 506.589L530.573 505.167C531.005 505.575 531.557 505.905 532.229 506.157C532.901 506.397 533.609 506.517 534.353 506.517C535.301 506.517 536.033 506.319 536.549 505.923C537.077 505.515 537.341 504.963 537.341 504.267C537.341 503.511 537.053 502.941 536.477 502.557C535.901 502.161 534.917 501.963 533.525 501.963H530.663L531.329 495.375H538.439V496.941H532.841L532.499 500.397H533.903Z" fill="black"/>
<path d="M121.401 380.507C123.201 380.507 124.521 380.849 125.361 381.533C126.213 382.205 126.639 383.129 126.639 384.305C126.639 385.049 126.459 385.721 126.099 386.321C125.751 386.909 125.217 387.377 124.497 387.725C123.789 388.061 122.913 388.229 121.869 388.229C120.981 388.229 120.123 388.097 119.295 387.833C118.467 387.557 117.783 387.179 117.243 386.699L118.071 385.277C118.503 385.685 119.055 386.015 119.727 386.267C120.399 386.507 121.107 386.627 121.851 386.627C122.799 386.627 123.531 386.429 124.047 386.033C124.575 385.625 124.839 385.073 124.839 384.377C124.839 383.621 124.551 383.051 123.975 382.667C123.399 382.271 122.415 382.073 121.023 382.073H118.161L118.827 375.485H125.937V377.051H120.339L119.997 380.507H121.401Z" fill="black"/>
<path d="M476.422 86.8353C477.142 87.1113 477.694 87.5073 478.078 88.0233C478.462 88.5393 478.654 89.1573 478.654 89.8773C478.654 90.6333 478.45 91.2933 478.042 91.8573C477.634 92.4093 477.052 92.8353 476.296 93.1353C475.54 93.4353 474.652 93.5853 473.632 93.5853C472.624 93.5853 471.742 93.4353 470.986 93.1353C470.242 92.8353 469.666 92.4093 469.258 91.8573C468.85 91.2933 468.646 90.6333 468.646 89.8773C468.646 89.1573 468.832 88.5393 469.204 88.0233C469.588 87.5073 470.14 87.1113 470.86 86.8353C470.284 86.5593 469.846 86.1933 469.546 85.7373C469.246 85.2813 469.096 84.7413 469.096 84.1173C469.096 83.4213 469.282 82.8153 469.654 82.2993C470.038 81.7833 470.572 81.3873 471.256 81.1113C471.94 80.8353 472.732 80.6973 473.632 80.6973C474.544 80.6973 475.342 80.8353 476.026 81.1113C476.722 81.3873 477.256 81.7833 477.628 82.2993C478.012 82.8153 478.204 83.4213 478.204 84.1173C478.204 84.7293 478.048 85.2693 477.736 85.7373C477.436 86.1933 476.998 86.5593 476.422 86.8353ZM473.632 82.1553C472.78 82.1553 472.108 82.3413 471.616 82.7133C471.124 83.0733 470.878 83.5653 470.878 84.1893C470.878 84.8133 471.118 85.3053 471.598 85.6653C472.09 86.0253 472.768 86.2053 473.632 86.2053C474.508 86.2053 475.192 86.0253 475.684 85.6653C476.188 85.3053 476.44 84.8133 476.44 84.1893C476.44 83.5653 476.182 83.0733 475.666 82.7133C475.162 82.3413 474.484 82.1553 473.632 82.1553ZM473.632 92.1273C474.628 92.1273 475.414 91.9233 475.99 91.5153C476.566 91.0953 476.854 90.5313 476.854 89.8233C476.854 89.1273 476.566 88.5813 475.99 88.1853C475.414 87.7773 474.628 87.5733 473.632 87.5733C472.636 87.5733 471.856 87.7773 471.292 88.1853C470.728 88.5813 470.446 89.1273 470.446 89.8233C470.446 90.5313 470.728 91.0953 471.292 91.5153C471.856 91.9233 472.636 92.1273 473.632 92.1273Z" fill="black"/>
<path d="M531.97 80.6973C533.662 80.6973 534.964 81.2433 535.876 82.3353C536.8 83.4273 537.262 84.9753 537.262 86.9793C537.262 88.3833 537.01 89.5833 536.506 90.5793C536.014 91.5633 535.318 92.3133 534.418 92.8293C533.53 93.3333 532.492 93.5853 531.304 93.5853C530.692 93.5853 530.116 93.5253 529.576 93.4053C529.036 93.2733 528.568 93.0873 528.172 92.8473L528.856 91.4433C529.468 91.8393 530.278 92.0373 531.286 92.0373C532.594 92.0373 533.614 91.6353 534.346 90.8313C535.09 90.0153 535.462 88.8333 535.462 87.2853V86.8353C535.102 87.3753 534.604 87.7893 533.968 88.0773C533.332 88.3533 532.618 88.4913 531.826 88.4913C530.998 88.4913 530.254 88.3353 529.594 88.0233C528.946 87.7113 528.436 87.2673 528.064 86.6913C527.704 86.1033 527.524 85.4313 527.524 84.6753C527.524 83.8833 527.716 83.1873 528.1 82.5873C528.496 81.9873 529.03 81.5253 529.702 81.2013C530.374 80.8653 531.13 80.6973 531.97 80.6973ZM532.132 87.0333C532.696 87.0333 533.2 86.9253 533.644 86.7093C534.088 86.4933 534.43 86.1993 534.67 85.8273C534.922 85.4553 535.048 85.0413 535.048 84.5853C535.048 84.1413 534.928 83.7393 534.688 83.3793C534.46 83.0073 534.118 82.7133 533.662 82.4973C533.218 82.2693 532.678 82.1553 532.042 82.1553C531.214 82.1553 530.542 82.3773 530.026 82.8213C529.522 83.2653 529.27 83.8593 529.27 84.6033C529.27 85.3473 529.528 85.9413 530.044 86.3853C530.56 86.8173 531.256 87.0333 532.132 87.0333Z" fill="black"/>
<path d="M73.8494 81.2413V92.4413H71.7694V82.9853H69.4014V81.2413H73.8494Z" fill="black"/>
<path d="M123.634 34.6968V45.8968H121.554V36.4408H119.186V34.6968H123.634Z" fill="black"/>
<path d="M185.193 44.1368V45.8968H176.937V44.5048L181.385 40.2808C181.887 39.8008 182.223 39.3848 182.393 39.0328C182.575 38.6701 182.665 38.3128 182.665 37.9608C182.665 37.4381 182.489 37.0381 182.137 36.7608C181.785 36.4835 181.268 36.3448 180.585 36.3448C179.444 36.3448 178.569 36.7341 177.961 37.5128L176.505 36.3928C176.943 35.8061 177.529 35.3528 178.265 35.0328C179.012 34.7021 179.844 34.5368 180.761 34.5368C181.977 34.5368 182.948 34.8248 183.673 35.4008C184.399 35.9768 184.761 36.7608 184.761 37.7528C184.761 38.3608 184.633 38.9315 184.377 39.4648C184.121 39.9981 183.631 40.6061 182.905 41.2888L179.913 44.1368H185.193Z" fill="black"/>
<path d="M240.778 39.3208C241.813 39.4488 242.602 39.8008 243.146 40.3768C243.69 40.9528 243.962 41.6728 243.962 42.5368C243.962 43.1875 243.797 43.7795 243.466 44.3128C243.136 44.8461 242.634 45.2728 241.962 45.5928C241.301 45.9021 240.49 46.0568 239.53 46.0568C238.73 46.0568 237.957 45.9448 237.21 45.7208C236.474 45.4861 235.845 45.1661 235.322 44.7608L236.218 43.1448C236.624 43.4861 237.114 43.7581 237.69 43.9608C238.277 44.1528 238.88 44.2488 239.498 44.2488C240.234 44.2488 240.81 44.0995 241.226 43.8008C241.653 43.4915 241.866 43.0755 241.866 42.5528C241.866 42.0301 241.664 41.6248 241.258 41.3368C240.864 41.0381 240.256 40.8888 239.434 40.8888H238.41V39.4648L240.954 36.4408H235.866V34.6968H243.498V36.0888L240.778 39.3208Z" fill="black"/>
<path d="M305.166 43.3528H303.182V45.8968H301.166V43.3528H295.022V41.9128L300.542 34.6968H302.766L297.566 41.5928H301.23V39.3368H303.182V41.5928H305.166V43.3528Z" fill="black"/>
<path d="M356.34 39.0328C357.919 39.0328 359.087 39.3421 359.844 39.9608C360.602 40.5688 360.98 41.4008 360.98 42.4568C360.98 43.1288 360.815 43.7368 360.484 44.2808C360.154 44.8248 359.658 45.2568 358.996 45.5768C358.335 45.8968 357.519 46.0568 356.548 46.0568C355.748 46.0568 354.975 45.9448 354.228 45.7208C353.482 45.4861 352.852 45.1661 352.34 44.7608L353.22 43.1448C353.636 43.4861 354.132 43.7581 354.708 43.9608C355.295 44.1528 355.898 44.2488 356.516 44.2488C357.252 44.2488 357.828 44.0995 358.244 43.8008C358.671 43.4915 358.884 43.0701 358.884 42.5368C358.884 41.9608 358.655 41.5288 358.196 41.2408C357.748 40.9421 356.975 40.7928 355.876 40.7928H353.172L353.748 34.6968H360.324V36.4408H355.508L355.268 39.0328H356.34Z" fill="black"/>
<path d="M416.509 38.9848C417.245 38.9848 417.907 39.1288 418.493 39.4168C419.08 39.6941 419.539 40.0941 419.869 40.6168C420.2 41.1395 420.365 41.7421 420.365 42.4248C420.365 43.1501 420.184 43.7901 419.821 44.3448C419.459 44.8888 418.968 45.3101 418.349 45.6088C417.731 45.9075 417.037 46.0568 416.269 46.0568C414.733 46.0568 413.539 45.5768 412.685 44.6168C411.843 43.6568 411.421 42.2808 411.421 40.4888C411.421 39.2301 411.651 38.1581 412.109 37.2728C412.568 36.3768 413.208 35.6995 414.029 35.2408C414.861 34.7715 415.821 34.5368 416.909 34.5368C417.485 34.5368 418.024 34.6008 418.525 34.7288C419.037 34.8461 419.48 35.0221 419.853 35.2568L419.085 36.8248C418.531 36.4621 417.821 36.2808 416.957 36.2808C415.88 36.2808 415.037 36.6115 414.429 37.2728C413.821 37.9341 413.517 38.8888 413.517 40.1368V40.1528C413.848 39.7688 414.269 39.4808 414.781 39.2888C415.293 39.0861 415.869 38.9848 416.509 38.9848ZM416.157 44.4248C416.808 44.4248 417.336 44.2541 417.741 43.9128C418.147 43.5608 418.349 43.0968 418.349 42.5208C418.349 41.9341 418.147 41.4701 417.741 41.1288C417.336 40.7875 416.792 40.6168 416.109 40.6168C415.437 40.6168 414.888 40.7981 414.461 41.1608C414.045 41.5235 413.837 41.9821 413.837 42.5368C413.837 43.0808 414.04 43.5341 414.445 43.8968C414.861 44.2488 415.432 44.4248 416.157 44.4248Z" fill="black"/>
<path d="M478.947 34.6968V36.0888L474.595 45.8968H472.371L476.579 36.4568H472.179V38.3608H470.243V34.6968H478.947Z" fill="black"/>
<path d="M535.324 40.0088C535.911 40.2755 536.359 40.6381 536.668 41.0968C536.988 41.5448 537.148 42.0728 537.148 42.6808C537.148 43.3635 536.956 43.9608 536.572 44.4728C536.199 44.9848 535.665 45.3795 534.972 45.6568C534.279 45.9235 533.473 46.0568 532.556 46.0568C531.639 46.0568 530.833 45.9235 530.14 45.6568C529.457 45.3795 528.929 44.9848 528.556 44.4728C528.183 43.9608 527.996 43.3635 527.996 42.6808C527.996 42.0728 528.151 41.5448 528.46 41.0968C528.769 40.6381 529.212 40.2755 529.788 40.0088C529.34 39.7635 528.993 39.4435 528.748 39.0488C528.513 38.6435 528.396 38.1795 528.396 37.6568C528.396 37.0275 528.567 36.4781 528.908 36.0088C529.26 35.5395 529.751 35.1768 530.38 34.9208C531.009 34.6648 531.735 34.5368 532.556 34.5368C533.388 34.5368 534.119 34.6648 534.748 34.9208C535.377 35.1768 535.868 35.5395 536.22 36.0088C536.572 36.4781 536.748 37.0275 536.748 37.6568C536.748 38.1795 536.625 38.6381 536.38 39.0328C536.135 39.4275 535.783 39.7528 535.324 40.0088ZM532.556 36.1688C531.905 36.1688 531.388 36.3075 531.004 36.5848C530.631 36.8621 530.444 37.2515 530.444 37.7528C530.444 38.2328 530.631 38.6168 531.004 38.9048C531.388 39.1821 531.905 39.3208 532.556 39.3208C533.217 39.3208 533.74 39.1821 534.124 38.9048C534.508 38.6168 534.7 38.2328 534.7 37.7528C534.7 37.2515 534.503 36.8621 534.108 36.5848C533.724 36.3075 533.207 36.1688 532.556 36.1688ZM532.556 44.4248C533.324 44.4248 533.932 44.2648 534.38 43.9448C534.828 43.6248 535.052 43.1821 535.052 42.6168C535.052 42.0621 534.828 41.6248 534.38 41.3048C533.932 40.9848 533.324 40.8248 532.556 40.8248C531.788 40.8248 531.185 40.9848 530.748 41.3048C530.311 41.6248 530.092 42.0621 530.092 42.6168C530.092 43.1821 530.311 43.6248 530.748 43.9448C531.185 44.2648 531.788 44.4248 532.556 44.4248Z" fill="black"/>
<path d="M591.984 34.5368C593.52 34.5368 594.709 35.0168 595.552 35.9768C596.405 36.9368 596.832 38.3128 596.832 40.1048C596.832 41.3635 596.603 42.4408 596.144 43.3368C595.685 44.2221 595.04 44.8995 594.208 45.3688C593.387 45.8275 592.432 46.0568 591.344 46.0568C590.768 46.0568 590.224 45.9981 589.712 45.8808C589.211 45.7528 588.773 45.5715 588.4 45.3368L589.168 43.7688C589.723 44.1315 590.432 44.3128 591.296 44.3128C592.373 44.3128 593.216 43.9821 593.824 43.3208C594.432 42.6595 594.736 41.7048 594.736 40.4568V40.4408C594.405 40.8248 593.984 41.1181 593.472 41.3208C592.96 41.5128 592.384 41.6088 591.744 41.6088C591.008 41.6088 590.347 41.4701 589.76 41.1928C589.173 40.9048 588.715 40.4995 588.384 39.9768C588.053 39.4541 587.888 38.8515 587.888 38.1688C587.888 37.4435 588.069 36.8088 588.432 36.2648C588.795 35.7101 589.285 35.2835 589.904 34.9848C590.523 34.6861 591.216 34.5368 591.984 34.5368ZM592.144 39.9768C592.816 39.9768 593.36 39.7955 593.776 39.4328C594.203 39.0701 594.416 38.6115 594.416 38.0568C594.416 37.5128 594.208 37.0648 593.792 36.7128C593.387 36.3501 592.821 36.1688 592.096 36.1688C591.445 36.1688 590.917 36.3448 590.512 36.6968C590.107 37.0381 589.904 37.4968 589.904 38.0728C589.904 38.6595 590.107 39.1235 590.512 39.4648C590.917 39.8061 591.461 39.9768 592.144 39.9768Z" fill="black"/>
<path d="M76.48 151.642V153.402H68.224V152.01L72.672 147.786C73.1734 147.306 73.5094 146.89 73.68 146.538C73.8614 146.175 73.952 145.818 73.952 145.466C73.952 144.943 73.776 144.543 73.424 144.266C73.072 143.989 72.5547 143.85 71.872 143.85C70.7307 143.85 69.856 144.239 69.248 145.018L67.792 143.898C68.2294 143.311 68.816 142.858 69.552 142.538C70.2987 142.207 71.1307 142.042 72.048 142.042C73.264 142.042 74.2347 142.33 74.96 142.906C75.6854 143.482 76.048 144.266 76.048 145.258C76.048 145.866 75.92 146.437 75.664 146.97C75.408 147.503 74.9174 148.111 74.192 148.794L71.2 151.642H76.48Z" fill="black"/>
<path d="M73.136 205.755C74.1707 205.883 74.96 206.235 75.504 206.811C76.048 207.387 76.32 208.107 76.32 208.971C76.32 209.622 76.1547 210.214 75.824 210.747C75.4934 211.28 74.992 211.707 74.32 212.027C73.6587 212.336 72.848 212.491 71.888 212.491C71.088 212.491 70.3147 212.379 69.568 212.155C68.832 211.92 68.2027 211.6 67.68 211.195L68.576 209.579C68.9814 209.92 69.472 210.192 70.048 210.395C70.6347 210.587 71.2374 210.683 71.856 210.683C72.592 210.683 73.168 210.534 73.584 210.235C74.0107 209.926 74.224 209.51 74.224 208.987C74.224 208.464 74.0214 208.059 73.616 207.771C73.2214 207.472 72.6134 207.323 71.792 207.323H70.768V205.899L73.312 202.875H68.224V201.131H75.856V202.523L73.136 205.755Z" fill="black"/>
<path d="M77.5786 268.716H75.5946V271.26H73.5786V268.716H67.4346V267.276L72.9546 260.06H75.1786L69.9786 266.956H73.6426V264.7H75.5946V266.956H77.5786V268.716Z" fill="black"/>
<path d="M71.8564 322.325C73.4351 322.325 74.6031 322.634 75.3604 323.253C76.1177 323.861 76.4964 324.693 76.4964 325.749C76.4964 326.421 76.3311 327.029 76.0004 327.573C75.6697 328.117 75.1737 328.549 74.5124 328.869C73.8511 329.189 73.0351 329.349 72.0644 329.349C71.2644 329.349 70.4911 329.237 69.7444 329.013C68.9977 328.778 68.3684 328.458 67.8564 328.053L68.7364 326.437C69.1524 326.778 69.6484 327.05 70.2244 327.253C70.8111 327.445 71.4137 327.541 72.0324 327.541C72.7684 327.541 73.3444 327.391 73.7604 327.093C74.1871 326.783 74.4004 326.362 74.4004 325.829C74.4004 325.253 74.1711 324.821 73.7124 324.533C73.2644 324.234 72.4911 324.085 71.3924 324.085H68.6884L69.2644 317.989H75.8404V319.733H71.0244L70.7844 322.325H71.8564Z" fill="black"/>
<path d="M73.0967 381.173C73.8327 381.173 74.494 381.317 75.0807 381.605C75.6673 381.883 76.126 382.283 76.4567 382.805C76.7873 383.328 76.9527 383.931 76.9527 384.613C76.9527 385.339 76.7713 385.979 76.4087 386.533C76.046 387.077 75.5553 387.499 74.9367 387.797C74.318 388.096 73.6247 388.245 72.8567 388.245C71.3207 388.245 70.126 387.765 69.2727 386.805C68.43 385.845 68.0087 384.469 68.0087 382.677C68.0087 381.419 68.238 380.347 68.6967 379.461C69.1553 378.565 69.7953 377.888 70.6167 377.429C71.4487 376.96 72.4087 376.725 73.4967 376.725C74.0727 376.725 74.6113 376.789 75.1127 376.917C75.6247 377.035 76.0673 377.211 76.4407 377.445L75.6727 379.013C75.118 378.651 74.4087 378.469 73.5447 378.469C72.4673 378.469 71.6247 378.8 71.0167 379.461C70.4087 380.123 70.1047 381.077 70.1047 382.325V382.341C70.4353 381.957 70.8567 381.669 71.3687 381.477C71.8807 381.275 72.4567 381.173 73.0967 381.173ZM72.7447 386.613C73.3953 386.613 73.9233 386.443 74.3287 386.101C74.734 385.749 74.9367 385.285 74.9367 384.709C74.9367 384.123 74.734 383.659 74.3287 383.317C73.9233 382.976 73.3793 382.805 72.6967 382.805C72.0247 382.805 71.4753 382.987 71.0487 383.349C70.6327 383.712 70.4247 384.171 70.4247 384.725C70.4247 385.269 70.6273 385.723 71.0327 386.085C71.4487 386.437 72.0193 386.613 72.7447 386.613Z" fill="black"/>
<path d="M76.6051 435.846V437.238L72.2531 447.046H70.0291L74.2371 437.606H69.8371V439.51H67.9011V435.846H76.6051Z" fill="black"/>
<path d="M75.0695 499.055C75.6562 499.322 76.1042 499.684 76.4135 500.143C76.7335 500.591 76.8935 501.119 76.8935 501.727C76.8935 502.41 76.7015 503.007 76.3175 503.519C75.9442 504.031 75.4109 504.426 74.7175 504.703C74.0242 504.97 73.2189 505.103 72.3015 505.103C71.3842 505.103 70.5789 504.97 69.8855 504.703C69.2029 504.426 68.6749 504.031 68.3015 503.519C67.9282 503.007 67.7415 502.41 67.7415 501.727C67.7415 501.119 67.8962 500.591 68.2055 500.143C68.5149 499.684 68.9575 499.322 69.5335 499.055C69.0855 498.81 68.7389 498.49 68.4935 498.095C68.2589 497.69 68.1415 497.226 68.1415 496.703C68.1415 496.074 68.3122 495.524 68.6535 495.055C69.0055 494.586 69.4962 494.223 70.1255 493.967C70.7549 493.711 71.4802 493.583 72.3015 493.583C73.1335 493.583 73.8642 493.711 74.4935 493.967C75.1229 494.223 75.6135 494.586 75.9655 495.055C76.3175 495.524 76.4935 496.074 76.4935 496.703C76.4935 497.226 76.3709 497.684 76.1255 498.079C75.8802 498.474 75.5282 498.799 75.0695 499.055ZM72.3015 495.215C71.6509 495.215 71.1335 495.354 70.7495 495.631C70.3762 495.908 70.1895 496.298 70.1895 496.799C70.1895 497.279 70.3762 497.663 70.7495 497.951C71.1335 498.228 71.6509 498.367 72.3015 498.367C72.9629 498.367 73.4855 498.228 73.8695 497.951C74.2535 497.663 74.4455 497.279 74.4455 496.799C74.4455 496.298 74.2482 495.908 73.8535 495.631C73.4695 495.354 72.9522 495.215 72.3015 495.215ZM72.3015 503.471C73.0695 503.471 73.6775 503.311 74.1255 502.991C74.5735 502.671 74.7975 502.228 74.7975 501.663C74.7975 501.108 74.5735 500.671 74.1255 500.351C73.6775 500.031 73.0695 499.871 72.3015 499.871C71.5335 499.871 70.9309 500.031 70.4935 500.351C70.0562 500.671 69.8375 501.108 69.8375 501.663C69.8375 502.228 70.0562 502.671 70.4935 502.991C70.9309 503.311 71.5335 503.471 72.3015 503.471Z" fill="black"/>
<path d="M71.7847 554.544C73.3207 554.544 74.51 555.024 75.3527 555.984C76.206 556.944 76.6327 558.32 76.6327 560.112C76.6327 561.371 76.4033 562.448 75.9447 563.344C75.486 564.229 74.8407 564.907 74.0087 565.376C73.1873 565.835 72.2327 566.064 71.1447 566.064C70.5687 566.064 70.0247 566.005 69.5127 565.888C69.0113 565.76 68.574 565.579 68.2007 565.344L68.9687 563.776C69.5233 564.139 70.2327 564.32 71.0967 564.32C72.174 564.32 73.0167 563.989 73.6247 563.328C74.2327 562.667 74.5367 561.712 74.5367 560.464V560.448C74.206 560.832 73.7847 561.125 73.2727 561.328C72.7607 561.52 72.1847 561.616 71.5447 561.616C70.8087 561.616 70.1473 561.477 69.5607 561.2C68.974 560.912 68.5153 560.507 68.1847 559.984C67.854 559.461 67.6887 558.859 67.6887 558.176C67.6887 557.451 67.87 556.816 68.2327 556.272C68.5953 555.717 69.086 555.291 69.7047 554.992C70.3233 554.693 71.0167 554.544 71.7847 554.544ZM71.9447 559.984C72.6167 559.984 73.1607 559.803 73.5767 559.44C74.0033 559.077 74.2167 558.619 74.2167 558.064C74.2167 557.52 74.0087 557.072 73.5927 556.72C73.1873 556.357 72.622 556.176 71.8967 556.176C71.246 556.176 70.718 556.352 70.3127 556.704C69.9073 557.045 69.7047 557.504 69.7047 558.08C69.7047 558.667 69.9073 559.131 70.3127 559.472C70.718 559.813 71.262 559.984 71.9447 559.984Z" fill="black"/>
<rect x="93" y="58" width="177" height="177" stroke="#DD0000" stroke-width="2"/>
<path d="M329.983 611.377V614.785H335.391V616.545H329.983V620.833H327.903V609.633H336.079V611.377H329.983ZM337.742 612.289H339.742V620.833H337.742V612.289ZM338.75 610.881C338.388 610.881 338.084 610.769 337.838 610.545C337.593 610.31 337.47 610.022 337.47 609.681C337.47 609.339 337.593 609.057 337.838 608.833C338.084 608.598 338.388 608.481 338.75 608.481C339.113 608.481 339.417 608.593 339.662 608.817C339.908 609.03 340.03 609.302 340.03 609.633C340.03 609.985 339.908 610.283 339.662 610.529C339.428 610.763 339.124 610.881 338.75 610.881ZM350.847 612.289V619.537C350.847 622.545 349.311 624.049 346.239 624.049C345.418 624.049 344.639 623.942 343.903 623.729C343.167 623.526 342.559 623.227 342.079 622.833L342.975 621.329C343.349 621.638 343.818 621.883 344.383 622.065C344.959 622.257 345.541 622.353 346.127 622.353C347.066 622.353 347.754 622.139 348.191 621.713C348.629 621.286 348.847 620.635 348.847 619.761V619.313C348.506 619.686 348.09 619.969 347.599 620.161C347.109 620.353 346.57 620.449 345.983 620.449C345.173 620.449 344.437 620.278 343.775 619.937C343.125 619.585 342.607 619.094 342.223 618.465C341.85 617.835 341.663 617.115 341.663 616.305C341.663 615.494 341.85 614.779 342.223 614.161C342.607 613.531 343.125 613.046 343.775 612.705C344.437 612.363 345.173 612.193 345.983 612.193C346.602 612.193 347.162 612.294 347.663 612.497C348.175 612.699 348.602 613.009 348.943 613.425V612.289H350.847ZM346.287 618.753C347.045 618.753 347.663 618.529 348.143 618.081C348.634 617.622 348.879 617.03 348.879 616.305C348.879 615.59 348.634 615.009 348.143 614.561C347.663 614.113 347.045 613.889 346.287 613.889C345.519 613.889 344.89 614.113 344.399 614.561C343.919 615.009 343.679 615.59 343.679 616.305C343.679 617.03 343.919 617.622 344.399 618.081C344.89 618.529 345.519 618.753 346.287 618.753ZM361.749 612.289V620.833H359.845V619.745C359.525 620.129 359.125 620.427 358.645 620.641C358.165 620.843 357.647 620.945 357.093 620.945C355.951 620.945 355.05 620.63 354.389 620.001C353.738 619.361 353.413 618.417 353.413 617.169V612.289H355.413V616.897C355.413 617.665 355.583 618.241 355.925 618.625C356.277 618.998 356.773 619.185 357.413 619.185C358.127 619.185 358.693 618.966 359.109 618.529C359.535 618.081 359.749 617.441 359.749 616.609V612.289H361.749ZM366.271 613.537C366.847 612.641 367.861 612.193 369.311 612.193V614.097C369.141 614.065 368.986 614.049 368.847 614.049C368.069 614.049 367.461 614.278 367.023 614.737C366.586 615.185 366.367 615.835 366.367 616.689V620.833H364.367V612.289H366.271V613.537ZM378.962 616.609C378.962 616.747 378.951 616.945 378.93 617.201H372.226C372.343 617.83 372.647 618.331 373.138 618.705C373.639 619.067 374.258 619.249 374.994 619.249C375.933 619.249 376.706 618.939 377.314 618.321L378.386 619.553C378.002 620.011 377.517 620.358 376.93 620.593C376.343 620.827 375.682 620.945 374.946 620.945C374.007 620.945 373.181 620.758 372.466 620.385C371.751 620.011 371.197 619.494 370.802 618.833C370.418 618.161 370.226 617.403 370.226 616.561C370.226 615.729 370.413 614.982 370.786 614.321C371.17 613.649 371.698 613.126 372.37 612.753C373.042 612.379 373.799 612.193 374.642 612.193C375.474 612.193 376.215 612.379 376.866 612.753C377.527 613.115 378.039 613.633 378.402 614.305C378.775 614.966 378.962 615.734 378.962 616.609ZM374.642 613.793C374.002 613.793 373.458 613.985 373.01 614.369C372.573 614.742 372.306 615.243 372.21 615.873H377.058C376.973 615.254 376.711 614.753 376.274 614.369C375.837 613.985 375.293 613.793 374.642 613.793ZM392.809 619.073V620.833H384.553V619.441L389.001 615.217C389.502 614.737 389.838 614.321 390.009 613.969C390.19 613.606 390.281 613.249 390.281 612.897C390.281 612.374 390.105 611.974 389.753 611.697C389.401 611.419 388.884 611.281 388.201 611.281C387.06 611.281 386.185 611.67 385.577 612.449L384.121 611.329C384.558 610.742 385.145 610.289 385.881 609.969C386.628 609.638 387.46 609.473 388.377 609.473C389.593 609.473 390.564 609.761 391.289 610.337C392.014 610.913 392.377 611.697 392.377 612.689C392.377 613.297 392.249 613.867 391.993 614.401C391.737 614.934 391.246 615.542 390.521 616.225L387.529 619.073H392.809Z" fill="black"/>
<defs>
<filter id="filter0_d" x="46.3598" y="22" width="50.6402" height="43.7682" filterUnits="userSpaceOnUse" color-interpolation-filters="sRGB">
<feFlood flood-opacity="0" result="BackgroundImageFix"/>
<feColorMatrix in="SourceAlpha" type="matrix" values="0 0 0 0 0 0 0 0 0 0 0 0 0 0 0 0 0 0 127 0"/>
<feOffset dy="4"/>
<feGaussianBlur stdDeviation="2"/>
<feColorMatrix type="matrix" values="0 0 0 0 0 0 0 0 0 0 0 0 0 0 0 0 0 0 0.25 0"/>
<feBlend mode="normal" in2="BackgroundImageFix" result="effect1_dropShadow"/>
<feBlend mode="normal" in="SourceGraphic" in2="effect1_dropShadow" result="shape"/>
</filter>
<filter id="filter1_d" x="281.369" y="22" width="51.6313" height="43.7756" filterUnits="userSpaceOnUse" color-interpolation-filters="sRGB">
<feFlood flood-opacity="0" result="BackgroundImageFix"/>
<feColorMatrix in="SourceAlpha" type="matrix" values="0 0 0 0 0 0 0 0 0 0 0 0 0 0 0 0 0 0 127 0"/>
<feOffset dy="4"/>
<feGaussianBlur stdDeviation="2"/>
<feColorMatrix type="matrix" values="0 0 0 0 0 0 0 0 0 0 0 0 0 0 0 0 0 0 0.25 0"/>
<feBlend mode="normal" in2="BackgroundImageFix" result="effect1_dropShadow"/>
<feBlend mode="normal" in="SourceGraphic" in2="effect1_dropShadow" result="shape"/>
</filter>
<filter id="filter2_d" x="234" y="0" width="105" height="31" filterUnits="userSpaceOnUse" color-interpolation-filters="sRGB">
<feFlood flood-opacity="0" result="BackgroundImageFix"/>
<feColorMatrix in="SourceAlpha" type="matrix" values="0 0 0 0 0 0 0 0 0 0 0 0 0 0 0 0 0 0 127 0"/>
<feOffset dy="4"/>
<feGaussianBlur stdDeviation="2"/>
<feColorMatrix type="matrix" values="0 0 0 0 0 0 0 0 0 0 0 0 0 0 0 0 0 0 0.25 0"/>
<feBlend mode="normal" in2="BackgroundImageFix" result="effect1_dropShadow"/>
<feBlend mode="normal" in="SourceGraphic" in2="effect1_dropShadow" result="shape"/>
</filter>
<filter id="filter3_d" x="0" y="0" width="105" height="31" filterUnits="userSpaceOnUse" color-interpolation-filters="sRGB">
<feFlood flood-opacity="0" result="BackgroundImageFix"/>
<feColorMatrix in="SourceAlpha" type="matrix" values="0 0 0 0 0 0 0 0 0 0 0 0 0 0 0 0 0 0 127 0"/>
<feOffset dy="4"/>
<feGaussianBlur stdDeviation="2"/>
<feColorMatrix type="matrix" values="0 0 0 0 0 0 0 0 0 0 0 0 0 0 0 0 0 0 0.25 0"/>
<feBlend mode="normal" in2="BackgroundImageFix" result="effect1_dropShadow"/>
<feBlend mode="normal" in="SourceGraphic" in2="effect1_dropShadow" result="shape"/>
</filter>
<filter id="filter4_d" x="328" y="57" width="65" height="67" filterUnits="userSpaceOnUse" color-interpolation-filters="sRGB">
<feFlood flood-opacity="0" result="BackgroundImageFix"/>
<feColorMatrix in="SourceAlpha" type="matrix" values="0 0 0 0 0 0 0 0 0 0 0 0 0 0 0 0 0 0 127 0"/>
<feOffset dx="4" dy="4"/>
<feGaussianBlur stdDeviation="2"/>
<feColorMatrix type="matrix" values="0 0 0 0 0 0 0 0 0 0 0 0 0 0 0 0 0 0 0.5 0"/>
<feBlend mode="normal" in2="BackgroundImageFix" result="effect1_dropShadow"/>
<feBlend mode="normal" in="SourceGraphic" in2="effect1_dropShadow" result="shape"/>
</filter>
<filter id="filter5_d" x="93" y="57" width="188" height="189" filterUnits="userSpaceOnUse" color-interpolation-filters="sRGB">
<feFlood flood-opacity="0" result="BackgroundImageFix"/>
<feColorMatrix in="SourceAlpha" type="matrix" values="0 0 0 0 0 0 0 0 0 0 0 0 0 0 0 0 0 0 127 0"/>
<feOffset dx="7" dy="7"/>
<feGaussianBlur stdDeviation="2.5"/>
<feColorMatrix type="matrix" values="0 0 0 0 0 0 0 0 0 0 0 0 0 0 0 0 0 0 0.5 0"/>
<feBlend mode="normal" in2="BackgroundImageFix" result="effect1_dropShadow"/>
<feBlend mode="normal" in="SourceGraphic" in2="effect1_dropShadow" result="shape"/>
</filter>
</defs>
</svg>
